<?xml version="1.0" encoding="UTF-8" standalone="no"?>
<!-- Created with Inkscape (http://www.inkscape.org/) -->

<svg
   version="1.1"
   id="svg1"
   width="320"
   height="320"
   viewBox="0 0 320 320"
   sodipodi:docname="blade-runner-unicorn.svg"
   inkscape:version="1.3.2 (091e20e, 2023-11-25)"
   xmlns:inkscape="http://www.inkscape.org/namespaces/inkscape"
   xmlns:sodipodi="http://sodipodi.sourceforge.net/DTD/sodipodi-0.dtd"
   xmlns="http://www.w3.org/2000/svg"
   xmlns:svg="http://www.w3.org/2000/svg">
  <defs
     id="defs1" />
  <sodipodi:namedview
     id="namedview1"
     pagecolor="#ffffff"
     bordercolor="#000000"
     borderopacity="0.25"
     inkscape:showpageshadow="2"
     inkscape:pageopacity="0.0"
     inkscape:pagecheckerboard="0"
     inkscape:deskcolor="#d1d1d1"
     showgrid="false"
     inkscape:zoom="1.5781007"
     inkscape:cx="180.59684"
     inkscape:cy="168.55705"
     inkscape:window-width="1440"
     inkscape:window-height="777"
     inkscape:window-x="0"
     inkscape:window-y="25"
     inkscape:window-maximized="0"
     inkscape:current-layer="svg1" />
  <path
     id="rect1-7-0"
     style="display:inline;fill:none;stroke:#000000;stroke-width:0.365999;stroke-miterlimit:0"
     d="m 162.12267,163.16116 38.89577,47.90327 -38.88304,-12.68538 z m 38.40451,-153.14042 1.71512,15.036048 -2.27723,1.033073 z M 84.711597,217.6537 126.43575,217.6356 88.144637,309.92992 Z m -13.33646,-37.42654 61.684093,22.35351 -4.25781,12.67368 -51.367093,0.16376 z m 66.854353,-24.31428 -0.59151,10.61776 -47.226203,0.30111 -21.38338,11.11025 3.28235,22.20747 -62.182499,32.57351 69.922369,-68.69396 z m -46.914313,12.90484 46.309363,-0.037 -0.5751,17.89601 19.26601,8.2841 2.54041,5.11547 27.03551,8.53847 0.11142,10.99491 -112.947083,-41.22975 z m 96.896663,40.59101 8.78314,2.6377 -8.80949,13.75564 z m 11.06821,3.19969 5.93928,1.23854 10.35186,-44.26492 -0.78793,51.03285 -25.00141,6.878 z m 18.50616,-20.6102 71.81758,65.54123 -85.92154,-31.52354 13.64078,-3.24232 z m -33.0132,-12.15677 5.6775,-12.77343 10.64453,40.84074 z m 7.16888,-15.56379 20.90736,4.83098 -9.03461,39.20312 z m 26.83312,-12.49656 4.94056,2.94772 -2.04703,37.72926 -3.77259,-2.83725 z m -54.34159,11.43027 20.67556,0.0227 1.84539,4.88388 -4.7168,11.57168 8.67881,15.22353 z m -24.51563,-5.17459 15.42433,34.77038 -16.5244,-7.12153 z m 1.08846,-4.93191 18.95614,-10.13226 -0.86848,52.95053 z m 21.49893,-11.87669 14.32426,-7.06363 7.59218,27.24382 -22.26383,-0.11606 z m 7.40538,-59.078568 22.03652,-14.656697 25.71063,83.396825 -1.55295,16.78177 -26.03923,-5.81808 -2.05927,4.02053 -16.75068,-58.54551 z m 24.55436,-15.492827 31.63519,1.17288 1.39198,10.908027 -26.87105,9.00691 z m 4.47337,-10.05531 6.59042,-3.21335 1.29746,11.69936 -8.15847,-0.22476 z m 0.57154,-16.564459 4.27808,-2.180054 1.54715,13.770473 -6.2864,2.98178 z m 0.42965,-12.517647 2.5029,-1.077959 1.11737,9.904523 -4.02033,1.857992 z"
     inkscape:label="unicorn" />
</svg>
