<?xml version="1.0" encoding="UTF-8" standalone="no"?>
<svg width="400mm" height="300mm" 
     viewBox="0 0 400000 300000"
     xmlns="http://www.w3.org/2000/svg">
  <defs>
    <style type="text/css">
      .cut-line {stroke:red;stroke-width:76.2;stroke-linejoin:bevel;fill:none}
    </style>
  </defs>
  <path d="M 20000,20000 h 20000 v 3000 h 29000.0 v -3000 h 29000.0 v 3000 h 29000.0 v -3000 h 29000.0 v 3000 h 20000 v 35994 h -20000 v 3000 h -29000.0 v -3000 h -29000.0 v 3000 h -29000.0 v -3000 h -29000.0 v 3000 h -20000 Z" class="cut-line" />
  <path d="M 20000,76000 h 20000 v -3000 h 29000.0 v 3000 h 29000.0 v -3000 h 29000.0 v 3000 h 29000.0 v -3000 h 20000 v 206994 h -20000 v -3000 h -29000.0 v 3000 h -29000.0 v -3000 h -29000.0 v 3000 h -29000.0 v -3000 h -20000 Z" class="cut-line" />
  <path d="M 196000,76000 h 20000 v 3000 h -2000.0 v -3000 h -2000.0 v 3000 h 20000 v 206994 h -20000 v 3000 h --2000.0 v -3000 h --2000.0 v 3000 h -20000 Z" class="cut-line" />
  <path d="M 252000,76000 h 20000 v -3000 h 29000.0 v 3000 h 29000.0 v -3000 h 29000.0 v 3000 h 29000.0 v -3000 h 20000 v 206994 h -20000 v -3000 h -29000.0 v 3000 h -29000.0 v -3000 h -29000.0 v 3000 h -29000.0 v -3000 h -20000 Z" class="cut-line" />
</svg>