<?xml version="1.0" encoding="UTF-8" standalone="no"?>
<!-- Created with Inkscape (http://www.inkscape.org/) -->

<svg
   width="130mm"
   height="130mm"
   viewBox="0 0 130 130"
   version="1.1"
   id="svg1"
   inkscape:version="1.3.2 (091e20e, 2023-11-25)"
   sodipodi:docname="bottle-cap-coaster.svg"
   xmlns:inkscape="http://www.inkscape.org/namespaces/inkscape"
   xmlns:sodipodi="http://sodipodi.sourceforge.net/DTD/sodipodi-0.dtd"
   xmlns="http://www.w3.org/2000/svg"
   xmlns:svg="http://www.w3.org/2000/svg">
  <sodipodi:namedview
     id="namedview1"
     pagecolor="#ffffff"
     bordercolor="#000000"
     borderopacity="0.25"
     inkscape:showpageshadow="2"
     inkscape:pageopacity="0.0"
     inkscape:pagecheckerboard="0"
     inkscape:deskcolor="#d1d1d1"
     inkscape:document-units="mm"
     inkscape:zoom="0.43786102"
     inkscape:cx="342.57445"
     inkscape:cy="513.86168"
     inkscape:window-width="1440"
     inkscape:window-height="777"
     inkscape:window-x="0"
     inkscape:window-y="25"
     inkscape:window-maximized="0"
     inkscape:current-layer="svg1" />
  <defs
     id="defs1" />
  <g
     inkscape:groupmode="layer"
     id="layer2"
     inkscape:label="Bottle Cap Openings">
    <g
       id="g2"
       inkscape:label="row 3"
       transform="translate(3.4537476,4.0582114)">
      <path
         id="path22"
         style="fill:none;fill-rule:evenodd;stroke:#000000;stroke-width:0.2;stroke-linecap:square;stroke-miterlimit:10;stroke-dasharray:none"
         d="m 95.826453,78.653236 -0.0376,1.321905 -1.43565,-0.05647 v -1.264922 c -7.66584,0.383523 -13.76344,6.719699 -13.7635,14.480776 0.013,3.07718 1.00458,6.07046 2.83135,8.546765 l 1.04875,-0.83811 1.01504,1.27675 -0.98737,0.87601 c 2.73479,2.94798 6.57099,4.62792 10.59212,4.63848 5.882927,1.6e-4 10.943857,-3.50529 13.217797,-8.539535 l -1.24612,-0.52516 0.54828,-1.5238 1.3071,0.46249 c 0.43627,-1.38034 0.67333,-2.84929 0.67334,-4.37389 -6e-5,-7.761087 -6.09769,-14.097764 -13.763497,-14.481289 z"
         sodipodi:nodetypes="cccccccccccccccc"
         inkscape:label="r3 c3" />
      <path
         id="path21"
         style="fill:none;fill-rule:evenodd;stroke:#000000;stroke-width:0.2;stroke-linecap:square;stroke-miterlimit:10;stroke-dasharray:none"
         d="m 61.685583,78.653236 -0.0376,1.321905 -1.43565,-0.05647 v -1.264922 c -7.66584,0.383523 -13.76344,6.719703 -13.7635,14.480776 0.013,3.07718 1.00459,6.07046 2.83135,8.546765 l 1.04875,-0.83811 1.01504,1.27675 -0.98737,0.87601 c 2.7348,2.94798 6.57099,4.62792 10.59212,4.63848 5.88293,1.6e-4 10.94386,-3.50529 13.2178,-8.539535 l -1.24612,-0.52516 0.54829,-1.5238 1.30709,0.46249 c 0.43628,-1.38034 0.67333,-2.84929 0.67334,-4.37389 -5e-5,-7.761091 -6.09769,-14.097764 -13.7635,-14.481289 z"
         sodipodi:nodetypes="cccccccccccccccc"
         inkscape:label="r3 c2" />
      <path
         id="path23"
         style="fill:none;fill-rule:evenodd;stroke:#000000;stroke-width:0.2;stroke-linecap:square;stroke-miterlimit:10;stroke-dasharray:none"
         d="m 27.544703,78.653236 -0.0376,1.321905 -1.435654,-0.05647 v -1.264922 c -7.66584,0.383523 -13.76344,6.719699 -13.7635,14.480776 0.013,3.07718 1.00458,6.07046 2.83135,8.546765 l 1.04875,-0.83811 1.01504,1.27675 -0.98737,0.87601 c 2.73479,2.94798 6.57099,4.62792 10.59212,4.63848 5.882934,1.6e-4 10.943864,-3.50529 13.217804,-8.539535 l -1.24612,-0.52516 0.54828,-1.5238 1.3071,0.46249 c 0.43627,-1.38034 0.67333,-2.84929 0.67334,-4.37389 -6e-5,-7.761087 -6.09769,-14.097764 -13.7635,-14.481289 z"
         sodipodi:nodetypes="cccccccccccccccc"
         inkscape:label="r3 c1" />
    </g>
    <g
       id="g1"
       inkscape:label="row 2"
       transform="translate(3.4537476,4.0582114)">
      <path
         id="path17"
         style="fill:none;fill-rule:evenodd;stroke:#000000;stroke-width:0.2;stroke-linecap:square;stroke-miterlimit:10;stroke-dasharray:none"
         d="m 95.826453,45.526772 -0.0376,1.321905 -1.43565,-0.05647 v -1.264922 c -7.66584,0.383523 -13.76344,6.719703 -13.7635,14.480769 0.013,3.077179 1.00458,6.070463 2.83135,8.546773 l 1.04875,-0.83811 1.01504,1.27674 -0.98737,0.876009 c 2.73479,2.947981 6.57099,4.627921 10.59212,4.638481 5.882927,1.59e-4 10.943857,-3.505291 13.217797,-8.53953 l -1.24612,-0.52516 0.54828,-1.523804 1.3071,0.462495 c 0.43627,-1.380342 0.67333,-2.849294 0.67334,-4.37389 -6e-5,-7.761089 -6.09769,-14.097762 -13.763497,-14.481285 z"
         sodipodi:nodetypes="cccccccccccccccc"
         inkscape:label="r2 c3" />
      <path
         id="path16"
         style="fill:none;fill-rule:evenodd;stroke:#000000;stroke-width:0.2;stroke-linecap:square;stroke-miterlimit:10;stroke-dasharray:none"
         d="m 61.383443,45.526771 -0.0376,1.321905 -1.43565,-0.05647 v -1.264922 c -7.66584,0.383523 -13.76344,6.719703 -13.7635,14.48077 0.013,3.07718 1.00459,6.070463 2.83135,8.546773 l 1.04875,-0.83811 1.01504,1.27674 -0.98737,0.87601 c 2.7348,2.94798 6.57099,4.62792 10.59212,4.63848 5.88293,1.6e-4 10.94386,-3.50529 13.2178,-8.53953 l -1.24612,-0.52516 0.54829,-1.523804 1.30709,0.462495 c 0.43628,-1.380342 0.67333,-2.849294 0.67334,-4.37389 -5e-5,-7.761089 -6.09769,-14.097762 -13.7635,-14.481287 z"
         sodipodi:nodetypes="cccccccccccccccc"
         inkscape:label="r2 c2" />
      <path
         id="path18"
         style="fill:none;fill-rule:evenodd;stroke:#000000;stroke-width:0.2;stroke-linecap:square;stroke-miterlimit:10;stroke-dasharray:none"
         d="m 27.544703,45.526771 -0.0376,1.321905 -1.435654,-0.05647 v -1.264922 c -7.66584,0.383523 -13.76344,6.719703 -13.7635,14.48077 0.013,3.07718 1.00458,6.070463 2.83135,8.546773 l 1.04875,-0.83811 1.01504,1.27674 -0.98737,0.87601 c 2.73479,2.94798 6.57099,4.62792 10.59212,4.63848 5.882934,1.6e-4 10.943864,-3.50529 13.217804,-8.53953 l -1.24612,-0.52516 0.54828,-1.523804 1.3071,0.462494 c 0.43627,-1.380341 0.67333,-2.849293 0.67334,-4.373889 -6e-5,-7.761089 -6.09769,-14.097762 -13.7635,-14.481287 z"
         sodipodi:nodetypes="cccccccccccccccc"
         inkscape:label="r2 c1" />
    </g>
    <g
       id="g3"
       inkscape:label="row 1"
       transform="translate(3.4537476,4.0582114)">
      <path
         id="path17-5"
         style="fill:none;fill-rule:evenodd;stroke:#000000;stroke-width:0.2;stroke-linecap:square;stroke-miterlimit:10;stroke-dasharray:none"
         d="m 95.963093,12.400306 -0.0376,1.321905 -1.43565,-0.05647 v -1.264922 c -7.66584,0.383523 -13.76345,6.719703 -13.76351,14.480769 0.013,3.07718 1.00458,6.070463 2.83136,8.546773 l 1.04875,-0.83811 1.01504,1.27674 -0.98737,0.87601 c 2.73479,2.94798 6.57099,4.62792 10.59212,4.63848 5.882937,1.6e-4 10.943867,-3.50529 13.217807,-8.53953 l -1.24612,-0.52516 0.54828,-1.523804 1.3071,0.462495 c 0.43627,-1.380342 0.67333,-2.849294 0.67334,-4.37389 -6e-5,-7.761089 -6.09769,-14.097762 -13.763507,-14.481286 z"
         sodipodi:nodetypes="cccccccccccccccc"
         inkscape:label="r1 c3" />
      <path
         id="path16-0"
         style="fill:none;fill-rule:evenodd;stroke:#000000;stroke-width:0.2;stroke-linecap:square;stroke-miterlimit:10;stroke-dasharray:none"
         d="m 61.520063,12.400306 -0.0376,1.321905 -1.43565,-0.05647 v -1.264922 c -7.66584,0.383523 -13.76345,6.719703 -13.76351,14.48077 0.013,3.07718 1.0046,6.070463 2.83136,8.546773 l 1.04875,-0.83811 1.01504,1.27674 -0.98737,0.87601 c 2.7348,2.94798 6.57099,4.62792 10.59212,4.63848 5.88293,1.6e-4 10.94387,-3.50529 13.21781,-8.53953 l -1.24612,-0.52516 0.54829,-1.523804 1.30709,0.462495 c 0.43628,-1.380342 0.67333,-2.849294 0.67334,-4.37389 -5e-5,-7.761089 -6.09769,-14.097762 -13.76351,-14.481287 z"
         sodipodi:nodetypes="cccccccccccccccc"
         inkscape:label="r1 c2" />
      <path
         id="path18-9"
         style="fill:none;fill-rule:evenodd;stroke:#000000;stroke-width:0.2;stroke-linecap:square;stroke-miterlimit:10;stroke-dasharray:none"
         d="m 27.544883,12.400306 -0.0376,1.321905 -1.435643,-0.05647 v -1.264922 c -7.665837,0.383523 -13.763437,6.719703 -13.763497,14.48077 0.013,3.07718 1.00458,6.070463 2.83135,8.546773 l 1.04875,-0.83811 1.01504,1.27674 -0.98737,0.87601 c 2.73479,2.94798 6.57099,4.62792 10.592111,4.63848 5.882939,1.6e-4 10.943869,-3.50529 13.217809,-8.53953 l -1.24612,-0.52516 0.54828,-1.523804 1.3071,0.462494 c 0.43627,-1.380341 0.67333,-2.849293 0.67334,-4.373889 -6e-5,-7.761089 -6.09769,-14.097762 -13.76351,-14.481287 z"
         sodipodi:nodetypes="cccccccccccccccc"
         inkscape:label="r1 c1" />
    </g>
  </g>
  <path
     style="color:#000000;fill:#000000;fill-rule:evenodd;stroke-linecap:square;stroke-miterlimit:10;-inkscape-stroke:none"
     d="M 19.736328,10 C 14.344341,10 10,14.34434 10,19.736328 v 88.728512 c 0,5.39199 4.344341,9.73633 9.736328,9.73633 h 88.728512 c 5.39199,0 9.73633,-4.34434 9.73633,-9.73633 V 19.736328 C 118.20117,14.34434 113.85683,10 108.46484,10 Z m 0,0.201172 h 88.728512 c 5.28465,0 9.53516,4.250509 9.53516,9.535156 v 88.728512 c 0,5.28464 -4.25051,9.53515 -9.53516,9.53515 H 19.736328 c -5.284647,0 -9.535156,-4.25051 -9.535156,-9.53515 V 19.736328 c 0,-5.284647 4.250509,-9.535156 9.535156,-9.535156 z"
     id="rect16"
     inkscape:label="outline" />
</svg>
