<?xml version="1.0" encoding="UTF-8" standalone="no"?>
<!-- Created with Inkscape (http://www.inkscape.org/) -->

<svg
   width="40mm"
   height="100mm"
   viewBox="0 0 40 100"
   version="1.1"
   id="svg1"
   sodipodi:docname="dovetail-template.svg"
   inkscape:version="1.3.2 (091e20e, 2023-11-25)"
   xmlns:inkscape="http://www.inkscape.org/namespaces/inkscape"
   xmlns:sodipodi="http://sodipodi.sourceforge.net/DTD/sodipodi-0.dtd"
   xmlns="http://www.w3.org/2000/svg"
   xmlns:svg="http://www.w3.org/2000/svg">
  <sodipodi:namedview
     id="namedview1"
     pagecolor="#ffffff"
     bordercolor="#000000"
     borderopacity="0.25"
     inkscape:showpageshadow="2"
     inkscape:pageopacity="0.0"
     inkscape:pagecheckerboard="0"
     inkscape:deskcolor="#d1d1d1"
     inkscape:document-units="mm"
     inkscape:zoom="1.6799552"
     inkscape:cx="35.417612"
     inkscape:cy="175.59992"
     inkscape:window-width="1440"
     inkscape:window-height="777"
     inkscape:window-x="0"
     inkscape:window-y="25"
     inkscape:window-maximized="0"
     inkscape:current-layer="layer1" />
  <defs
     id="defs1" />
  <g
     inkscape:label="Layer 1"
     inkscape:groupmode="layer"
     id="layer1">
    <path
       style="fill:none;stroke:#000000;stroke-width:0.1;stroke-miterlimit:0"
       d="M 6.6375001,5.05 H 16.637501 v 5 l -2,-1 v 7 l 2,-1.05 v 7.05 l -2,-1.05 v 7.05 l 2,-1 v 7 l -2,-1 v 7 l 2,-1 v 7 l -2,-1.05 v 7.05 l 2,-1 v 7 l -2,-1 v 7 l 2,-1 v 7 l -2,-1 v 7 l 2,-1 V 82 l -2,-0.95 v 7 l 2,-1 v 8 H 6.6375001 Z"
       id="path1"
       sodipodi:nodetypes="ccccccccccccccccccccccccccccccccc" />
    <path
       style="fill:none;stroke:#000000;stroke-width:0.1;stroke-miterlimit:0"
       d="m 33.737501,5.05 h -10 V 9.8 l -2.1,-1 v 7.25 l 2.1,-1.05 v 6.85 l -2.1,-1.05 v 7.25 l 2.1,-1 v 6.8 l -2.1,-1 v 7.2 l 2.1,-1 v 6.8 l -2.1,-1.05 v 7.25 l 2.1,-1 v 6.8 l -2.1,-1 v 7.2 l 2.1,-1 v 6.8 l -2.1,-1 v 7.2 l 2.1,-1 v 6.75 l -2.1,-0.95 v 7.2 l 2.1,-1 v 8 h 10 z"
       id="path1-3-1"
       sodipodi:nodetypes="ccccccccccccccccccccccccccccccccc" />
  </g>
</svg>
