<?xml version="1.0" encoding="UTF-8" standalone="no"?>
<!-- Created with Inkscape (http://www.inkscape.org/) -->

<svg
   width="225mm"
   height="175mm"
   viewBox="0 0 225 175"
   version="1.1"
   id="svg1"
   xml:space="preserve"
   inkscape:version="1.3.2 (091e20e, 2023-11-25)"
   sodipodi:docname="scissor-case.svg"
   xmlns:inkscape="http://www.inkscape.org/namespaces/inkscape"
   xmlns:sodipodi="http://sodipodi.sourceforge.net/DTD/sodipodi-0.dtd"
   xmlns="http://www.w3.org/2000/svg"
   xmlns:svg="http://www.w3.org/2000/svg"><sodipodi:namedview
     id="namedview1"
     pagecolor="#ffffff"
     bordercolor="#000000"
     borderopacity="0.25"
     inkscape:showpageshadow="2"
     inkscape:pageopacity="0.0"
     inkscape:pagecheckerboard="0"
     inkscape:deskcolor="#d1d1d1"
     inkscape:document-units="mm"
     inkscape:zoom="0.59818564"
     inkscape:cx="422.94563"
     inkscape:cy="390.34705"
     inkscape:window-width="1440"
     inkscape:window-height="776"
     inkscape:window-x="0"
     inkscape:window-y="25"
     inkscape:window-maximized="0"
     inkscape:current-layer="g2"
     showguides="true"
     showgrid="false" /><defs
     id="defs1"><linearGradient
       id="swatch8"
       inkscape:swatch="solid"><stop
         style="stop-color:#000000;stop-opacity:0;"
         offset="0"
         id="stop8" /></linearGradient></defs><path
     style="color:#000000;fill:none;stroke:#000000;stroke-miterlimit:0;stroke-opacity:1;-inkscape-stroke:none"
     d="m 159.0747,30.080382 c -0.68792,2.17309 -22.27305,83.109478 -22.67259,85.705708 -1.30595,8.48609 -3.2946,15.74016 -1.8975,18.99863 13.49871,31.48326 67.46213,31.78824 75.92822,-3.02828 0.5345,-2.19809 -1.17144,-11.0601 -2.22332,-16.82289 -5.21053,-28.546168 -14.23705,-56.333428 -23.24982,-83.926628 -13.49655,-37.4555197 -25.19707,-3.09963 -25.88499,-0.92654 z"
     id="rect8-8"
     sodipodi:nodetypes="zsssssz"
     inkscape:label="Bottom" /><g
     id="g2"
     inkscape:label="Inner Layer"><path
       style="display:inline;fill:none;fill-opacity:0;stroke:#000000;stroke-width:0.0541733;stroke-miterlimit:0;stroke-dasharray:none;stroke-opacity:1"
       id="path3-2"
       sodipodi:type="arc"
       sodipodi:cx="111.50098"
       sodipodi:cy="150.01604"
       sodipodi:rx="1.4729134"
       sodipodi:ry="1.4729134"
       sodipodi:start="0"
       sodipodi:end="6.2824643"
       sodipodi:open="true"
       sodipodi:arc-type="chord"
       d="m 112.97389,150.01604 a 1.4729134,1.4729134 0 0 1 -1.47265,1.47291 1.4729134,1.4729134 0 0 1 -1.47318,-1.47238 1.4729134,1.4729134 0 0 1 1.47212,-1.47345 1.4729134,1.4729134 0 0 1 1.47371,1.47186 z"
       inkscape:label="Cut for Magnet" /><path
       style="display:inline;fill:none;fill-opacity:0;stroke:#000000;stroke-width:0.054173;stroke-miterlimit:0;stroke-dasharray:none;stroke-opacity:1"
       id="path3"
       sodipodi:type="arc"
       sodipodi:cx="110.97179"
       sodipodi:cy="18.204809"
       sodipodi:rx="1.4729135"
       sodipodi:ry="1.4729135"
       sodipodi:start="0"
       sodipodi:end="6.2824643"
       sodipodi:open="true"
       sodipodi:arc-type="chord"
       d="m 112.4447,18.204809 a 1.4729135,1.4729135 0 0 1 -1.47265,1.472914 1.4729135,1.4729135 0 0 1 -1.47318,-1.472383 1.4729135,1.4729135 0 0 1 1.47212,-1.473444 1.4729135,1.4729135 0 0 1 1.47371,1.471851 z"
       inkscape:label="Cut for Magnet" /><path
       style="color:#000000;display:inline;fill:none;stroke:#000000;stroke-width:0.824563;stroke-miterlimit:0;stroke-opacity:1;-inkscape-stroke:none"
       d="m 121.90846,128.77521 c 0.56723,-1.79185 18.36553,-68.529053 18.69498,-70.669808 1.07683,-6.997317 2.71661,-12.978756 1.56462,-15.66557 -11.13055,-25.959935 -55.62679,-26.21142 -62.607615,2.497008 -0.440732,1.812464 0.965926,9.119751 1.833268,13.871535 4.296406,23.538114 11.739351,46.450485 19.170937,69.202835 11.12876,30.88445 20.77658,2.55586 21.34381,0.764 z"
       id="rect8-3-5"
       sodipodi:nodetypes="zsssssz"
       inkscape:label="Inner Cut" /><path
       style="color:#000000;fill:none;stroke:#000000;stroke-miterlimit:0;stroke-opacity:1;-inkscape-stroke:none"
       d="m 124.22476,141.33322 c 0.68792,-2.17309 22.27304,-83.109488 22.67258,-85.705718 1.30595,-8.48609 3.2946,-15.74016 1.89751,-18.99863 -13.49872,-31.483261 -67.462143,-31.788251 -75.928233,3.02828 -0.5345,2.19809 1.17144,11.0601 2.22332,16.82289 5.21053,28.546163 14.23705,56.333438 23.249813,83.926638 13.49657,37.45552 25.19709,3.09964 25.88501,0.92654 z"
       id="rect8-3"
       sodipodi:nodetypes="zsssssz"
       inkscape:label="Box Outline" /></g><g
     inkscape:groupmode="layer"
     id="layer1"
     inkscape:label="Letters"><path
       style="font-size:234.667px;font-family:'Apple Chancery';-inkscape-font-specification:'Apple Chancery';baseline-shift:baseline;display:inline;stroke-width:0.225061"
       d="m 45.410481,90.050437 -4.2035,4.02298 q -0.593131,-2.01149 -0.593131,-3.997193 0,-6.653392 4.951362,-10.676375 4.951362,-4.02298 13.152055,-4.02298 h 2.03728 q -1.160476,5.905531 -1.392571,7.942808 l -2.269374,20.501733 q -1.031534,9.12907 -4.951363,13.22942 -4.435595,4.6419 -10.599009,4.6419 -5.828166,0 -8.458577,-5.72501 l 4.126135,-3.14618 q 1.289417,6.60182 7.246525,6.60182 3.661945,0 5.518706,-2.81093 1.85676,-2.81093 2.578834,-9.5159 l 3.171966,-28.599272 h -0.799438 q -10.727952,0 -10.727952,7.091794 0,2.217798 1.212052,4.461385 z"
       id="text2"
       inkscape:label="letter J"
       aria-label="J" /><path
       style="font-size:133.333px;font-family:'Apple Chancery';-inkscape-font-specification:'Apple Chancery';baseline-shift:baseline;display:none;fill-opacity:0.994048;stroke-width:0.480188"
       d="m 32.896042,115.21914 5.314573,-3.22001 q 1.250486,7.69051 9.222345,7.69051 3.876512,0 6.346223,-2.09458 2.469714,-2.12583 2.469714,-5.43961 0,-4.53302 -5.470883,-9.00352 l -3.782728,-3.0637 q -4.564277,-3.751455 -6.096126,-5.908555 -1.531845,-2.188352 -1.531845,-4.908158 0,-5.126997 4.095346,-8.472048 4.095349,-3.345052 10.347787,-3.345052 4.970684,0 9.409916,2.375921 l -1.813205,4.157866 -0.81282,1.844468 q -0.687766,1.625648 -1.625631,1.625648 -0.406411,0 -0.84408,-0.312633 0.531459,-1.625629 0.531459,-2.594759 0,-2.000785 -2.219618,-3.345052 -2.188354,-1.344286 -5.439618,-1.344286 -7.37788,0 -7.37788,6.096128 0,2.188352 1.625635,4.220407 1.656896,2.000784 6.846421,6.221173 l 3.032429,2.500967 q 5.783504,4.689345 5.783504,9.847605 0,5.6897 -4.814374,9.47243 -4.783114,3.78273 -11.973416,3.78273 -8.753414,0 -11.223128,-6.78389 z"
       id="text1"
       aria-label="S"
       inkscape:label="letter S" /><path
       style="font-size:220px;font-family:'Apple Chancery';-inkscape-font-specification:'Apple Chancery';baseline-shift:baseline;display:none;stroke-width:0.999999"
       d="M -4.8278084,354.55801 13.219067,340.48575 q 8.271484,1.5039 13.964843,1.82617 12.353516,-4.72656 17.402344,-16.32812 5.048828,-11.70899 5.048828,-35.44922 l 0.429688,-16.65039 q 0,-32.11914 21.914062,-50.27344 18.261719,-15.03906 38.564458,-15.03906 8.70117,0 17.83203,3.97461 l -15.89844,15.57617 q -9.77539,-6.33789 -19.335938,-6.33789 -23.955079,0 -23.955079,39.20898 l -0.429687,14.82422 q 0,30.40039 -5.800781,44.58008 -5.800782,14.07226 -22.236328,23.31054 l 22.236328,1.82618 9.882812,0.75195 11.923828,0.75195 q 4.726563,0.32227 10.634766,0.32227 26.640629,0 41.572269,-15.46875 1.71875,2.14844 1.71875,3.11523 0,3.54492 -10.3125,12.13867 -17.61719,14.50196 -37.812503,14.50196 -8.271485,0 -20.302735,-0.85938 L 38.355785,358.4252 Q 13.43391,356.59903 -4.8278084,354.55801 Z"
       id="text3"
       inkscape:label="letter L"
       transform="matrix(0.26458333,0,0,0.26458333,27.623036,18.366447)"
       aria-label="L" /><path
       style="font-size:192px;font-family:'Apple Chancery';-inkscape-font-specification:'Apple Chancery';baseline-shift:baseline;display:none;stroke-width:0.999999"
       d="m 25.476879,284.60098 -15.28125,14.625 q -2.1562499,-7.3125 -2.1562499,-14.53125 0,-24.1875 17.9999999,-38.8125 18,-14.625 47.8125,-14.625 h 7.40625 q -4.21875,21.46875 -5.0625,28.875 l -3.09375,28.03125 q 43.781251,-56.53125 72.000001,-56.53125 7.03125,0 13.3125,1.875 l -12.09375,13.125 q -5.25,-3.09375 -11.71875,-3.09375 -12.09375,0 -25.21875,11.4375 -13.125001,11.4375 -21.375001,29.15625 8.8125,17.0625 20.531251,33 l 10.125,13.6875 q 10.125,13.78125 15.75,13.78125 7.59375,0 13.875,-10.96875 2.53125,2.15625 2.53125,3.5625 0,5.53125 -8.25,13.40625 -8.15625,7.875 -13.875,7.875 -10.3125,0 -29.062501,-26.625 -16.875,-24.09375 -26.53125,-43.59375 l -1.96875,17.71875 -1.21875,10.40625 q -1.59375,13.3125 -5.8125,19.21875 -4.125,5.90625 -15.9375,11.53125 l 22.125,1.40625 -11.25,10.875 -40.59375,-2.0625 12,-11.625 10.21875,1.125 q 11.4375,-7.21875 14.0625,-29.53125 l 1.03125,-9.09375 7.21875,-65.625 h -2.90625 q -39,0 -39,25.78125 0,8.0625 4.40625,16.21875 z"
       id="text5"
       inkscape:label="letter K"
       transform="matrix(0.26458333,0,0,0.26458333,24.898655,17.837283)"
       aria-label="K" /></g><g
     id="g1"
     inkscape:label="Top"><path
       style="color:#000000;-inkscape-font-specification:'Bodoni Ornaments';fill:#000000;stroke-width:0.434969;-inkscape-stroke:none"
       d="m 77.768132,107.86074 c -1.514645,-0.38425 -2.93282,-0.24083 -4.216179,0.43356 -1.166193,0.61283 -2.203498,1.71163 -3.148087,3.16966 -0.157631,-0.86912 -0.318923,-1.68398 -0.498457,-2.26678 -0.217046,-0.70457 -0.443768,-1.20188 -0.726989,-1.51047 l 0.008,0.009 c -0.25024,-0.30426 -0.734535,-0.9166 -1.440158,-1.82268 l -0.007,-0.009 c -0.390654,-0.56019 -0.692603,-0.90611 -1.045625,-1.0132 -0.266731,-0.0809 -0.508609,-0.10054 -0.722367,-0.0185 -0.213757,0.0821 -0.367121,0.27372 -0.437215,0.5048 -0.103957,0.3427 0.0015,0.71068 0.255881,1.04707 l 0.03154,0.0424 0.04818,0.0226 c 0.982583,0.46668 1.652548,1.09762 2.039714,1.90069 l 5.8e-4,0.001 3.28e-4,0.002 c 0.321412,0.64027 0.544347,1.65943 0.643123,3.03952 0.0058,0.22695 -0.04529,0.8416 -0.159526,1.79019 l -7.57e-4,0.002 -1.78e-4,0.004 c -0.08926,0.97297 -0.100448,1.88347 -0.03255,2.73247 l 3.27e-4,0.002 3.28e-4,0.002 c 0.210626,2.20124 0.567979,3.75493 1.118229,4.69552 0.534871,0.91431 1.344566,1.78345 2.421366,2.61216 0.854446,0.67058 1.492518,1.07952 1.979448,1.22722 0.324563,0.0985 0.691738,0.12952 1.098952,0.0999 l 0.163354,-0.0117 -0.25686,1.58134 0.414117,-2.33973 -0.12475,-0.0804 c -1.502245,-0.97795 -2.43787,-1.666 -2.751196,-1.9931 l -5.8e-4,-10e-4 -0.0014,-0.001 c -0.492005,-0.4975 -0.697809,-1.09911 -0.627915,-1.86926 l -7.4e-5,-0.003 7.57e-4,-0.002 c 0.03175,-0.46808 -0.240762,-0.93475 -0.733369,-1.41919 l 0.0088,0.009 c -0.385724,-0.42597 -0.477933,-0.93549 -0.266699,-1.63184 0.129088,-0.42555 0.435067,-0.84032 0.945526,-1.24105 0.280561,-0.20597 0.499688,-0.37856 0.658195,-0.5221 0.159886,-0.14478 0.266492,-0.23173 0.31826,-0.40238 0.06629,-0.21852 0.04503,-0.45374 -0.08277,-0.63147 -0.127797,-0.17772 -0.331314,-0.28871 -0.584271,-0.36544 -0.158587,-0.0481 -0.336918,-0.0465 -0.562547,-0.0215 l 0.01824,-0.002 c -0.16513,0.004 -0.281837,-0.009 -0.315507,-0.0194 -0.138466,-0.042 -0.195156,-0.0937 -0.221302,-0.14259 -0.02611,-0.0489 -0.03761,-0.12476 0.0044,-0.26323 0.03796,-0.12515 0.09208,-0.19941 0.16221,-0.25086 l 0.05636,-0.0424 0.02189,-0.0662 c 0.462494,-1.43205 1.363746,-2.45339 2.741105,-3.10402 5.43e-4,-2.9e-4 0.0012,-9.9e-4 0.0022,-10e-4 1.173561,-0.51789 2.210576,-0.62381 3.13666,-0.34289 0.05679,0.0172 0.24549,0.0881 0.52879,0.203 0.283304,0.11485 0.526664,0.21811 0.728643,0.30803 l 0.03695,0.0158 0.04093,0.003 c 0.194674,0.01 0.366413,-0.0106 0.51591,-0.0823 0.149492,-0.0717 0.267113,-0.20744 0.315219,-0.36603 0.09358,-0.3085 -0.03982,-0.63344 -0.300727,-0.93727 -0.274214,-0.31932 -0.681379,-0.53465 -1.19781,-0.66076 z m -2.882553,18.26782 -0.207004,-0.26876 c -0.14786,-0.19209 -0.233319,-0.30101 -0.310103,-0.37372 l -0.01907,-0.0191 -0.0237,-0.0125 c -0.675481,-0.38067 -1.310464,-0.70605 -1.905927,-0.97499 l -0.01656,-0.007 -0.01707,-0.005 c -0.723979,-0.19066 -1.551488,-0.42713 -2.481884,-0.70936 -0.843581,-0.2559 -1.942859,-0.64733 -3.292152,-1.17266 l -8.33e-4,-2.5e-4 c -1.327756,-0.51921 -2.257635,-0.8597 -2.804141,-1.02548 l -0.638991,-0.19383 c -0.286727,-0.087 -0.652969,-0.21267 -1.095181,-0.37572 -0.402911,-0.17909 -0.686686,-0.29531 -0.866843,-0.34995 l -0.408111,-0.1238 -0.06313,0.20812 c -0.22852,0.75333 -0.432211,1.57121 -0.61204,2.4537 l -0.04287,0.2116 10.583705,2.23129 2.282728,0.56106 0.01212,9.5e-4 c 0.508932,0.0662 0.911726,0.10052 1.218324,0.10147 l 0.02553,6.5e-4 z m 2.777671,-17.84598 8.33e-4,2.5e-4 8.32e-4,2.5e-4 c 0.457898,0.11158 0.774187,0.29126 0.97259,0.5223 0.212017,0.2469 0.250302,0.4099 0.214589,0.52763 -0.01654,0.0545 -0.0325,0.0742 -0.08729,0.10047 -0.05001,0.024 -0.151155,0.0383 -0.27987,0.0358 -0.198737,-0.0877 -0.423463,-0.18289 -0.690285,-0.29107 -0.2866,-0.11621 -0.463455,-0.185 -0.566496,-0.21625 -1.043779,-0.31663 -2.200604,-0.18646 -3.443822,0.36335 l -0.0022,0.001 -0.0022,10e-4 c -1.473219,0.69521 -2.476263,1.82965 -2.971864,3.36426 l 0.0782,-0.10855 c -0.154332,0.11318 -0.262082,0.28158 -0.321089,0.4761 -0.06305,0.20785 -0.0662,0.41774 0.02828,0.59451 0.09449,0.17678 0.270764,0.29077 0.478605,0.35381 0.12617,0.0383 0.266758,0.0432 0.453616,0.0382 l 0.0089,-3e-5 0.0091,-8.7e-4 c 0.195813,-0.0217 0.333689,-0.0115 0.388217,0.005 0.199907,0.0606 0.311222,0.13927 0.357332,0.20338 0.04611,0.0641 0.0585,0.12322 0.01974,0.25102 0.01136,-0.0375 -0.05289,0.0782 -0.193808,0.20576 -0.140921,0.12761 -0.3519,0.29579 -0.628997,0.499 l -0.0033,0.002 -0.0027,0.003 c -0.558678,0.43858 -0.931564,0.92284 -1.093388,1.4563 -0.241297,0.79546 -0.12504,1.51354 0.360864,2.05015 l 0.0039,0.005 0.0049,0.004 c 0.448463,0.44103 0.621998,0.80757 0.603479,1.0806 l 6.45e-4,-0.005 c -0.07909,0.87146 0.174755,1.63078 0.750712,2.21368 2.93e-4,2.9e-4 2.9e-4,5.4e-4 5.8e-4,0.001 0.377344,0.39332 1.308111,1.05112 2.70311,1.96432 l -0.02637,0.12783 c -0.289729,0.007 -0.565103,-0.003 -0.782593,-0.0687 -0.365529,-0.11088 -0.999544,-0.49575 -1.836867,-1.1529 l -8.33e-4,-2.5e-4 -5.8e-4,-0.001 c -1.044854,-0.80378 -1.814204,-1.63458 -2.31344,-2.48797 -0.483897,-0.82718 -0.852359,-2.34404 -1.060357,-4.51462 -0.06563,-0.82058 -0.05514,-1.70637 0.03216,-2.65802 0.114512,-0.95175 0.17005,-1.55173 0.161834,-1.85341 l 6.45e-4,-0.005 -4.02e-4,-0.005 c -0.100685,-1.41119 -0.321348,-2.47329 -0.687947,-3.20493 -0.421893,-0.87509 -1.161866,-1.55649 -2.167489,-2.05307 -0.191207,-0.259 -0.239231,-0.4581 -0.182822,-0.64406 0.04304,-0.14188 0.09406,-0.19349 0.176616,-0.22518 0.08256,-0.0317 0.227689,-0.0357 0.440462,0.0288 0.124135,0.0377 0.446617,0.3154 0.82201,0.85482 l 0.0032,0.005 0.0039,0.005 c 0.71221,0.91462 1.195531,1.52672 1.4541,1.84111 l 0.0032,0.005 0.0041,0.004 c 0.197794,0.21551 0.424438,0.66981 0.632456,1.34508 0.208014,0.67526 0.405265,1.57137 0.588802,2.68302 l 0.09683,0.58513 0.304347,-0.50871 c 0.988481,-1.65091 2.083309,-2.78018 3.273879,-3.40582 1.190575,-0.62563 2.480404,-0.75901 3.909209,-0.39618 z m -15.293404,9.96119 c -0.210509,-0.0639 -0.427571,-0.0614 -0.604888,0.042 -0.177315,0.10339 -0.289179,0.28604 -0.355516,0.50472 -0.05408,0.17829 -0.04157,0.37159 0.03936,0.5375 0.08093,0.16592 0.218255,0.30293 0.396372,0.42297 l 0.02738,0.0181 0.03172,0.01 c -0.03005,-0.009 0.02484,0.0103 0.08378,0.037 0.05895,0.0267 0.142825,0.0661 0.250426,0.11683 0.215218,0.10147 0.526096,0.25027 0.93181,0.44601 2.181948,1.05462 3.825488,1.84738 4.929984,2.37882 0.552243,0.26572 0.969188,0.46589 1.252351,0.60095 0.141575,0.0675 0.249473,0.11918 0.324281,0.1543 0.03741,0.0175 0.06639,0.0311 0.08792,0.0409 0.01073,0.005 0.01947,0.009 0.02746,0.012 0.008,0.003 0.0041,0.004 0.035,0.0134 0.03367,0.0102 0.175508,0.0775 0.366972,0.1921 l 0.01198,0.007 0.01415,0.006 c 0.235738,0.1011 0.42244,0.17342 0.56951,0.21803 0.06994,0.0212 0.145809,0.0224 0.223707,0.0234 l 0.205685,0.0624 0.718578,-0.17974 -0.02512,-0.19228 c -0.02277,-0.17134 -0.123898,-0.29472 -0.259411,-0.4267 -0.135513,-0.13198 -0.31847,-0.27068 -0.55309,-0.42434 -0.469236,-0.30733 -1.146155,-0.67335 -2.038736,-1.10494 l -8.33e-4,-2.6e-4 c -1.314647,-0.63046 -2.789137,-1.41115 -4.422656,-2.34211 -0.609593,-0.34527 -1.101338,-0.61456 -1.475976,-0.80905 -0.374634,-0.19449 -0.620911,-0.31264 -0.792264,-0.36462 z m -0.126264,0.41624 c 0.09504,0.0288 0.351292,0.1437 0.718066,0.33412 0.366776,0.19042 0.854427,0.45821 1.46127,0.80193 l 2.52e-4,-8.3e-4 c 1.640449,0.9349 3.122832,1.72026 4.449384,2.35643 0.883283,0.4271 1.548498,0.7888 1.989344,1.07753 0.220423,0.14437 0.385147,0.27143 0.488236,0.37182 0.0028,0.003 0.0012,0.002 0.0039,0.005 l -0.123861,0.0308 -0.135765,-0.0412 -0.03518,0.002 c -0.07351,0.002 -0.124424,-0.006 -0.143018,-0.0114 -0.119319,-0.0362 -0.297106,-0.10417 -0.524727,-0.20177 -0.184054,-0.10951 -0.318866,-0.1855 -0.437919,-0.22161 0.0276,0.008 0.01577,0.006 0.01194,0.005 -0.0036,-0.002 -0.01073,-0.006 -0.02013,-0.01 -0.01885,-0.008 -0.04669,-0.0214 -0.08329,-0.0386 -0.07321,-0.0343 -0.180942,-0.0854 -0.32209,-0.15274 -0.282289,-0.13465 -0.699522,-0.33509 -1.251539,-0.60071 -1.104036,-0.53122 -2.747336,-1.32401 -4.929168,-2.37857 -0.406341,-0.19604 -0.717375,-0.3453 -0.934818,-0.44781 -0.108724,-0.0513 -0.194387,-0.0905 -0.256941,-0.11876 -0.03916,-0.0177 -0.06109,-0.0257 -0.0859,-0.0358 -0.129214,-0.0889 -0.20744,-0.17543 -0.242143,-0.24657 -0.03565,-0.0731 -0.04053,-0.1327 -0.01381,-0.2208 0.0468,-0.15427 0.1059,-0.22504 0.158319,-0.2556 0.05241,-0.0306 0.123782,-0.0423 0.259581,-10e-4 z m -1.145524,2.40373 c 0.140044,0.0438 0.413644,0.15243 0.811738,0.32969 l 0.0062,0.003 0.0065,0.002 c 0.447364,0.16498 0.819977,0.29315 1.119316,0.38395 l 0.638991,0.19383 c 0.518913,0.15741 1.448448,0.4972 2.772668,1.01508 1.356102,0.528 2.463292,0.92212 3.324421,1.18334 0.925801,0.28083 1.747904,0.5154 2.473756,0.7069 0.569534,0.25764 1.180925,0.5708 1.831504,0.93644 0.0017,0.002 0.01844,0.0227 0.02142,0.026 -0.269111,-0.004 -0.619697,-0.0313 -1.082057,-0.0912 l -2.262162,-0.55571 -10.159048,-2.14154 c 0.149776,-0.709 0.315264,-1.37268 0.496699,-1.99153 z m 10.700183,5.08709 -0.147515,-0.0288 c -4.260716,-0.82676 -7.192711,-1.3245 -8.817012,-1.49385 -0.992345,-0.11046 -1.755785,-0.1413 -2.308511,-0.0868 -0.276462,0.0273 -0.501233,0.0743 -0.68295,0.15593 -0.18172,0.0817 -0.333283,0.21193 -0.388624,0.39436 l -0.0365,0.12032 c -0.04338,0.143 -0.06265,0.27727 -0.02153,0.41339 0.04114,0.13612 0.165391,0.24992 0.297339,0.28994 0.708998,0.21507 2.032085,0.38677 4.020918,0.53791 1.988835,0.15116 4.633537,0.27669 7.936242,0.37619 l 0.265736,0.008 -0.04476,-0.26216 z m 1.44364,0.84541 c -0.167258,-0.0507 -0.379014,-0.0558 -0.707948,-0.0514 -0.328929,0.004 -0.761428,0.0278 -1.300216,0.069 -1.349918,0.0903 -2.494117,0.30309 -3.435326,0.64557 -1.341442,0.48812 -2.594603,1.34303 -3.759097,2.55285 -0.07666,0.0704 -0.124064,0.14179 -0.23027,0.28792 -0.10807,0.1487 -0.252408,0.35522 -0.435131,0.62084 -0.36545,0.53124 -0.882423,1.29876 -1.551104,2.30378 -0.969793,1.41325 -2.071121,2.43117 -3.302315,3.07227 -0.01133,0.001 -0.0215,0.003 -0.04044,0.005 -0.05525,0.005 -0.138741,0.0107 -0.248403,0.017 -0.218109,0.0124 -0.541206,0.0265 -0.963663,0.0424 -0.343753,0.005 -0.634095,0.0603 -0.868647,0.18572 -0.234555,0.12537 -0.406655,0.33088 -0.482694,0.58155 -0.07188,0.23696 -0.09612,0.44782 -0.03468,0.64111 0.06144,0.19329 0.228677,0.3428 0.425646,0.40255 0.854915,0.25934 2.050954,-0.0652 3.651588,-0.8756 0.915942,-0.46673 1.677351,-1.04538 2.278216,-1.7361 0.204884,-0.22463 0.368153,-0.38326 0.487519,-0.48332 0.16119,1.87551 0.646802,3.53328 1.518945,4.92273 l -2.52e-4,8.3e-4 8.32e-4,2.5e-4 c 0.866603,1.3648 1.932171,2.25602 3.187983,2.63697 l 0.799147,0.24241 c 0.318257,0.0966 0.60339,0.12189 0.854267,0.0461 0.240205,-0.0726 0.43659,-0.24226 0.506118,-0.47147 0.09884,-0.32585 -0.06771,-0.66231 -0.370827,-1.0047 l -0.0039,-0.005 -0.0049,-0.004 c -0.322564,-0.32455 -0.767455,-0.56572 -1.324522,-0.7347 -0.226118,-0.0686 -0.532908,-0.097 -0.947754,-0.10373 l -0.0097,-2.2e-4 -0.0091,8.7e-4 c -0.377397,0.0275 -0.637333,0.01 -0.701155,-0.009 -0.195287,-0.0592 -0.423102,-0.24496 -0.657454,-0.59538 -0.234356,-0.35043 -0.471146,-0.85687 -0.70127,-1.51332 l -5.8e-4,-0.001 -5.8e-4,-0.001 c -0.558739,-1.53554 -0.635386,-2.93334 -0.246493,-4.21536 0.109564,-0.36119 0.306996,-0.52852 0.700293,-0.58479 0.244295,-0.0291 0.433541,-0.0608 0.578051,-0.0999 0.07281,-0.0197 0.134456,-0.0405 0.193153,-0.0719 0.05869,-0.0314 0.132535,-0.074 0.166654,-0.18649 0.118233,-0.38976 0.115014,-1.1566 0.06194,-2.31429 0.227961,-0.27644 0.432412,-0.50118 0.591336,-0.63826 0.137452,-0.11855 0.212449,-0.14307 0.265693,-0.16177 0.502436,0.59205 0.995304,0.99883 1.500636,1.15212 0.216208,0.0656 0.422921,0.0787 0.605987,-0.002 0.183065,-0.0805 0.309327,-0.25295 0.370088,-0.45325 0.08362,-0.27567 0.027,-0.60875 -0.104132,-1.07029 -0.06202,-0.2183 -0.10427,-0.39394 -0.125675,-0.5193 -0.0214,-0.12535 -0.0094,-0.21189 -0.01692,-0.18712 0.08859,-0.29206 0.412347,-0.52888 1.097155,-0.66682 0.684808,-0.13795 1.690574,-0.15841 2.998975,-0.05 l 0.05466,0.004 0.05102,-0.0218 c 0.295081,-0.1297 0.50374,-0.3934 0.606022,-0.73058 0.05724,-0.18869 0.02101,-0.40088 -0.0956,-0.55989 l -0.04271,-0.0582 z m -2.973095,-0.6675 c -2.526388,-0.0893 -4.892351,-0.18551 -6.521868,-0.30935 -1.977858,-0.15031 -3.304743,-0.33132 -3.927717,-0.5203 -0.02789,-0.008 -0.0048,0.008 -0.0073,5.3e-4 -0.0024,-0.008 -0.008,-0.0645 0.02138,-0.1613 l 0.0365,-0.12032 c 0.0093,-0.0307 0.03817,-0.0729 0.151163,-0.12371 0.112993,-0.0508 0.298553,-0.0955 0.546865,-0.11997 0.496625,-0.049 1.242065,-0.0225 2.219006,0.0863 l 8.32e-4,2.5e-4 8.33e-4,2.5e-4 c 1.354975,0.14127 4.188126,0.64719 7.480261,1.26769 z m 2.84683,1.08374 0.654442,0.19852 c 0.01904,0.0391 0.03951,0.0717 0.02231,0.12839 -0.07304,0.24078 -0.188317,0.3652 -0.353701,0.44313 -1.27344,-0.0997 -2.293822,-0.0929 -3.027061,0.0548 -0.755945,0.15228 -1.273233,0.46002 -1.427064,0.96713 -0.03984,0.13133 -0.02058,0.2361 0.0052,0.38686 0.02574,0.15077 0.07038,0.33737 0.134976,0.56474 0.122115,0.42981 0.136102,0.72783 0.106593,0.82511 -0.03621,0.11937 -0.07676,0.15834 -0.128637,0.18115 -0.05192,0.0228 -0.148191,0.0314 -0.304934,-0.0161 -0.413988,-0.12558 -0.893116,-0.49287 -1.40648,-1.12888 l -0.07093,-0.0881 -0.1124,0.008 c -0.209357,0.0135 -0.383333,0.1308 -0.586414,0.30595 -0.203076,0.17516 -0.430896,0.4216 -0.69142,0.74285 l -0.05229,0.064 0.0041,0.0829 c 0.0584,1.20322 0.02177,1.9558 -0.04543,2.2101 -0.01794,0.007 -0.02701,0.0123 -0.05776,0.0207 -0.107889,0.0292 -0.285404,0.0599 -0.521135,0.0878 l -0.0022,0.001 -0.0028,7e-5 c -0.519015,0.0742 -0.906334,0.39775 -1.055356,0.88901 -0.418964,1.38115 -0.329026,2.88475 0.253632,4.48741 0.237739,0.67819 0.484469,1.21399 0.750439,1.61169 0.265974,0.3977 0.554748,0.66721 0.892252,0.76959 0.202567,0.0614 0.46228,0.0557 0.858315,0.0269 l -0.0188,5.3e-4 c 0.395698,0.006 0.681361,0.0407 0.828194,0.0852 0.506489,0.15364 0.880529,0.36578 1.137386,0.62289 0.252146,0.28808 0.306915,0.48373 0.276829,0.58291 -0.02744,0.0905 -0.07158,0.13782 -0.215702,0.18137 -0.133441,0.0403 -0.334374,0.0353 -0.602179,-0.046 l -0.799081,-0.24262 c -1.141409,-0.34624 -2.120221,-1.15191 -2.946463,-2.45273 l -5.8e-4,-0.001 c -0.88019,-1.40269 -1.383952,-3.07658 -1.506643,-5.03352 l -0.0095,-0.15024 -0.14471,-0.0439 c -0.117692,-0.0357 -0.201561,0.002 -0.272301,0.0373 -0.07074,0.0357 -0.136884,0.0842 -0.212101,0.14606 -0.150429,0.12372 -0.331381,0.30426 -0.553221,0.54773 l -0.0024,0.002 -0.0013,10e-4 c -0.560447,0.64425 -1.274607,1.18942 -2.147951,1.63445 -1.560634,0.78994 -2.69101,1.04004 -3.327719,0.8469 -0.09606,-0.0291 -0.116891,-0.0537 -0.137321,-0.11801 -0.02041,-0.0643 -0.02108,-0.19388 0.03633,-0.38315 0.04517,-0.14893 0.124104,-0.24548 0.271476,-0.32425 0.147367,-0.0788 0.370418,-0.13029 0.669292,-0.13433 l 0.0027,-8e-5 0.0027,-7e-5 c 0.427407,-0.0161 0.752378,-0.0299 0.977088,-0.0427 0.112359,-0.006 0.199503,-0.0126 0.263947,-0.0185 0.03221,-0.003 0.05796,-0.006 0.08198,-0.01 0.02331,-0.003 0.02672,0.009 0.100258,-0.0291 1.313684,-0.67921 2.473935,-1.75962 3.480837,-3.22763 l 0.0011,-5.8e-4 0.0013,-10e-4 c 0.668021,-1.00402 1.18388,-1.77107 1.54694,-2.29883 0.181532,-0.26388 0.324534,-0.46797 0.428674,-0.61126 0.104139,-0.14329 0.193343,-0.24387 0.174424,-0.22674 l 0.0059,-0.004 0.0053,-0.005 c 1.128948,-1.17435 2.32805,-1.98801 3.600352,-2.45097 0.889518,-0.32367 1.996266,-0.53262 3.317748,-0.62087 l 0.0019,-3.3e-4 8.33e-4,2.5e-4 c 0.533361,-0.0408 0.958606,-0.0635 1.272305,-0.0677 0.313698,-0.004 0.530158,0.0188 0.576015,0.0327 z"
       id="text4-7"
       inkscape:label="Decoration" /><path
       style="color:#000000;-inkscape-font-specification:'Bodoni Ornaments';fill:#000000;stroke-width:0.434969;-inkscape-stroke:none"
       d="m 26.299796,142.97478 c 1.461886,-0.55198 2.542614,-1.4814 3.208849,-2.76901 0.60541,-1.17006 0.826944,-2.66482 0.766823,-4.40104 0.626767,0.62239 1.225475,1.1982 1.706303,1.57329 0.58129,0.45347 1.051871,0.73145 1.460744,0.82235 l -0.01152,-0.003 c 0.379358,0.10623 1.12698,0.33108 2.224231,0.67009 l 0.01099,0.004 c 0.640994,0.2357 1.086595,0.34649 1.437354,0.23221 0.265022,-0.0864 0.474588,-0.20871 0.602885,-0.39836 0.128299,-0.18964 0.144329,-0.43459 0.06953,-0.66418 -0.110938,-0.34051 -0.408054,-0.58187 -0.809194,-0.71206 l -0.05015,-0.0167 -0.05245,0.009 c -1.072814,0.17981 -1.983322,0.046 -2.760485,-0.39085 l -0.0011,-5.5e-4 -0.0014,-0.001 c -0.63006,-0.341 -1.396263,-1.04904 -2.267272,-2.12409 -0.134664,-0.18277 -0.444631,-0.71599 -0.893976,-1.55918 l -8.09e-4,-0.002 -0.0019,-0.003 c -0.483783,-0.84888 -0.995811,-1.60185 -1.537491,-2.25911 l -0.0014,-0.001 -0.0014,-0.001 c -1.432782,-1.68433 -2.615187,-2.75371 -3.604797,-3.20996 -0.961951,-0.4435 -2.12339,-0.69265 -3.480693,-0.75574 -1.084469,-0.0607 -1.841745,-0.0308 -2.325555,0.12686 -0.322483,0.10506 -0.641326,0.28978 -0.958255,0.54719 l -0.12724,0.10311 -0.69461,-1.44365 0.999806,2.15552 0.148331,-0.005 c 1.791582,-0.0581 2.952609,-0.0295 3.396766,0.0593 l 0.0011,5.5e-4 0.0019,2.9e-4 c 0.688203,0.12628 1.201341,0.50176 1.584896,1.17325 l 0.0016,0.002 8.09e-4,0.002 c 0.241913,0.40197 0.732501,0.62862 1.413723,0.74385 l -0.01235,-0.002 c 0.560117,0.12847 0.927397,0.49347 1.152815,1.18536 0.137757,0.42283 0.124299,0.93807 -0.06486,1.55885 -0.112137,0.32949 -0.193009,0.59644 -0.240812,0.80487 -0.04822,0.21024 -0.08586,0.34255 -0.03061,0.51212 0.07074,0.21712 0.222819,0.39781 0.429346,0.47038 0.20652,0.0726 0.436928,0.0471 0.688264,-0.0348 0.157572,-0.0513 0.302875,-0.15473 0.473564,-0.30439 l -0.01407,0.0117 c 0.132825,-0.0982 0.236326,-0.15384 0.26978,-0.16474 0.137579,-0.0448 0.213655,-0.0349 0.263082,-0.01 0.04942,0.0252 0.102257,0.0808 0.147082,0.21834 0.04051,0.12434 0.03865,0.21621 0.0106,0.29855 l -0.02195,0.067 0.01993,0.0668 c 0.440542,1.43895 0.286217,2.7923 -0.470696,4.11424 -2.79e-4,5.5e-4 -4.23e-4,0.002 -0.0011,0.002 -0.66579,1.09645 -1.455457,1.77692 -2.375607,2.07671 -0.05643,0.0184 -0.251749,0.0683 -0.549783,0.13625 -0.298037,0.068 -0.556691,0.12265 -0.773779,0.16454 l -0.03931,0.008 -0.03507,0.0213 c -0.165149,0.10353 -0.294387,0.21842 -0.3759,0.36282 -0.08151,0.1444 -0.100274,0.32299 -0.04894,0.48056 0.09987,0.30653 0.395253,0.4966 0.783115,0.59637 0.407633,0.10486 0.864746,0.0483 1.360383,-0.14389 z m -8.093706,-16.62872 0.323578,0.10187 c 0.231199,0.0729 0.36362,0.11325 0.468201,0.12891 l 0.02657,0.005 0.0266,-0.003 c 0.771771,-0.0745 1.478682,-0.17123 2.120881,-0.29159 l 0.0175,-0.004 0.01696,-0.006 c 0.702767,-0.2581 1.516647,-0.53791 2.441082,-0.83909 0.838176,-0.27308 1.963596,-0.5814 3.370665,-0.92305 l 8.27e-4,-2.6e-4 c 1.385904,-0.33434 2.343263,-0.58746 2.886268,-0.76438 l 0.634897,-0.20685 c 0.284889,-0.0928 0.657137,-0.19941 1.113065,-0.31886 0.432883,-0.0838 0.732091,-0.15095 0.911094,-0.20927 l 0.405495,-0.13211 -0.06737,-0.20678 c -0.243866,-0.74851 -0.545038,-1.53573 -0.902757,-2.36226 l -0.08598,-0.19805 -9.955349,4.22901 -2.192889,0.84668 -0.01048,0.006 c -0.455201,0.23705 -0.80511,0.43949 -1.057043,0.61423 l -0.02131,0.0141 z m 7.938225,16.2228 -8.27e-4,2.6e-4 -8.27e-4,2.7e-4 c -0.439326,0.17063 -0.801519,0.20436 -1.096457,0.1285 -0.315175,-0.0811 -0.439876,-0.19281 -0.477987,-0.30979 -0.01765,-0.0542 -0.01581,-0.0794 0.01406,-0.13235 0.02726,-0.0483 0.102029,-0.11791 0.208961,-0.1896 0.21318,-0.0418 0.45191,-0.0924 0.732617,-0.15648 0.30152,-0.0688 0.485907,-0.11362 0.588287,-0.14697 1.037092,-0.33789 1.911115,-1.10683 2.615753,-2.26931 l 0.0011,-0.002 0.0011,-0.002 c 0.809991,-1.41337 0.983032,-2.91773 0.510925,-4.45974 l -0.002,0.13378 c 0.06175,-0.18115 0.05371,-0.38091 -0.0093,-0.57418 -0.06728,-0.20651 -0.184845,-0.38042 -0.363513,-0.47128 -0.17867,-0.0909 -0.388457,-0.0834 -0.594966,-0.0161 -0.125363,0.0408 -0.243479,0.11725 -0.393793,0.22837 l -0.0073,0.005 -0.007,0.006 c -0.148134,0.12989 -0.267009,0.20047 -0.321187,0.21812 -0.198627,0.0647 -0.33491,0.064 -0.409419,0.0378 -0.07451,-0.0262 -0.118505,-0.0675 -0.159875,-0.19452 0.01213,0.0372 -0.0014,-0.0944 0.04112,-0.27966 0.0425,-0.1853 0.119219,-0.44397 0.230095,-0.76922 l 0.0017,-0.003 5.76e-4,-0.004 c 0.207024,-0.67942 0.235561,-1.28994 0.06287,-1.81999 -0.257501,-0.79036 -0.763885,-1.3126 -1.469475,-1.47443 l -0.0059,-0.002 -0.0065,-6.3e-4 c -0.620175,-0.1049 -0.972291,-0.30611 -1.1134,-0.54058 l 0.0024,0.005 c -0.434011,-0.75982 -1.076816,-1.23712 -1.882743,-1.38536 -4.08e-4,-7e-5 -5.48e-4,-2.8e-4 -0.0011,-5.6e-4 -0.534552,-0.10649 -1.674284,-0.11304 -3.34086,-0.0633 L 19.43989,127.945 c 0.233805,-0.17123 0.464925,-0.32124 0.681021,-0.39164 0.363187,-0.11833 1.103366,-0.16569 2.166101,-0.10618 l 8.27e-4,-2.7e-4 0.0011,5.6e-4 c 1.316845,0.0609 2.423254,0.30175 3.321115,0.7157 0.870279,0.40123 2.040709,1.43405 3.453788,3.09475 0.523544,0.63526 1.022012,1.36757 1.495189,2.19783 0.450932,0.84595 0.748847,1.36969 0.928272,1.61234 l 0.0024,0.005 0.003,0.004 c 0.890382,1.09947 1.679304,1.84402 2.398711,2.23406 0.84687,0.47602 1.843671,0.61114 2.952491,0.44265 0.305036,0.10291 0.45839,0.23867 0.518586,0.42344 0.04593,0.14097 0.03364,0.21249 -0.01591,0.28574 -0.04955,0.0733 -0.166261,0.1596 -0.377672,0.22848 -0.123339,0.0402 -0.546747,-0.003 -1.163334,-0.23035 l -0.0052,-0.002 -0.0059,-0.002 c -1.107539,-0.34225 -1.854227,-0.56746 -2.246211,-0.67723 l -0.0052,-0.002 -0.0056,-9.1e-4 c -0.285543,-0.0635 -0.731443,-0.30624 -1.288555,-0.74084 -0.557108,-0.4346 -1.231815,-1.05646 -2.018658,-1.86288 l -0.414344,-0.42434 0.04165,0.59133 c 0.134547,1.9195 -0.116714,3.47217 -0.734777,4.66669 -0.618067,1.19452 -1.599309,2.04223 -2.978551,2.56263 z m 6.837575,-16.92222 c 0.20916,-0.0681 0.385724,-0.19442 0.471928,-0.3807 0.0862,-0.18628 0.07337,-0.40007 0.0026,-0.61736 -0.05772,-0.17715 -0.178628,-0.32848 -0.339965,-0.41819 -0.161337,-0.0897 -0.352367,-0.12345 -0.567129,-0.11991 l -0.0328,8.5e-4 -0.03151,0.0103 c 0.02986,-0.01 -0.02624,0.006 -0.08986,0.0177 -0.06362,0.0118 -0.154921,0.0276 -0.272214,0.0476 -0.234551,0.04 -0.574632,0.096 -1.019347,0.1677 -2.392784,0.38431 -4.194207,0.67512 -5.404055,0.87162 -0.604921,0.0983 -1.061375,0.1728 -1.370869,0.22415 -0.154745,0.0257 -0.272776,0.0451 -0.354221,0.0591 -0.04071,0.007 -0.07221,0.0125 -0.09548,0.0168 -0.0117,0.002 -0.02091,0.004 -0.02937,0.006 -0.0085,0.002 -0.0056,-9.2e-4 -0.03634,0.009 -0.03346,0.0109 -0.188252,0.037 -0.410866,0.0526 l -0.01398,8.9e-4 -0.0151,0.003 c -0.251167,0.0521 -0.44565,0.0996 -0.591777,0.14724 -0.06949,0.0226 -0.132386,0.0651 -0.196852,0.10883 l -0.204367,0.0666 -0.486302,0.55873 0.130668,0.14327 c 0.116752,0.12746 0.270297,0.17073 0.456961,0.20138 0.186664,0.0306 0.416074,0.0396 0.696415,0.0313 0.560676,-0.0166 1.325235,-0.104 2.304169,-0.26106 l 8.27e-4,-2.7e-4 c 1.438844,-0.23561 3.094745,-0.43954 4.967059,-0.6113 0.697483,-0.0658 1.254837,-0.12655 1.673357,-0.18153 0.418515,-0.055 0.68808,-0.0991 0.858336,-0.15456 z m -0.134743,-0.41357 c -0.09443,0.0308 -0.3703,0.0833 -0.78004,0.13709 -0.409737,0.0538 -0.962883,0.1134 -1.657219,0.17895 l 2.7e-4,8.3e-4 c -1.880257,0.17249 -3.545301,0.37712 -4.997173,0.61486 -0.968734,0.15543 -1.721225,0.23965 -2.247977,0.25527 -0.263377,0.008 -0.471175,-0.002 -0.613174,-0.0254 -0.0038,-5.8e-4 -0.0022,-0.001 -0.0059,-0.002 l 0.08394,-0.0961 0.134895,-0.044 0.02782,-0.0216 c 0.05912,-0.0437 0.105335,-0.0665 0.12381,-0.0725 0.118555,-0.0386 0.303243,-0.0847 0.545746,-0.13494 0.213606,-0.0156 0.367642,-0.0304 0.485932,-0.069 -0.02742,0.009 -0.01645,0.004 -0.01239,0.003 0.0039,-7.9e-4 0.01196,-0.002 0.02209,-0.004 0.02029,-0.004 0.05053,-0.009 0.09038,-0.016 0.07969,-0.0138 0.197268,-0.0335 0.351534,-0.0591 0.308539,-0.0512 0.76539,-0.12568 1.370062,-0.22389 1.209344,-0.19642 3.010586,-0.48706 5.403245,-0.87135 0.4454,-0.0719 0.785873,-0.12753 1.022845,-0.16795 0.118488,-0.0202 0.211174,-0.0371 0.27866,-0.0497 0.04227,-0.008 0.06478,-0.0139 0.09094,-0.0198 0.156862,-10e-4 0.270515,0.0251 0.33969,0.0636 0.07107,0.0395 0.109196,0.0856 0.137717,0.17315 0.04994,0.15328 0.04199,0.24514 0.0165,0.3002 -0.02548,0.0551 -0.07725,0.10558 -0.212179,0.14954 z M 32.41042,122.6064 c -0.139927,0.0442 -0.426423,0.1118 -0.854307,0.19434 l -0.0067,10e-4 -0.0065,0.002 c -0.461254,0.12082 -0.840145,0.22903 -1.137566,0.32593 l -0.634896,0.20685 c -0.515589,0.16798 -1.472268,0.42147 -2.85451,0.75488 -1.41418,0.34335 -2.547626,0.654 -3.403238,0.93276 -0.919869,0.29969 -1.728222,0.57797 -2.433005,0.83646 -0.614474,0.11476 -1.295043,0.20798 -2.037789,0.28059 -0.0025,-5.6e-4 -0.0281,-0.008 -0.03247,-0.009 0.223213,-0.15039 0.526024,-0.32909 0.939435,-0.54463 l 2.172961,-0.8393 9.555775,-4.05951 c 0.283052,0.66708 0.527279,1.30599 0.732768,1.91728 z m -11.685629,1.95408 0.137436,-0.0608 c 3.966829,-1.76111 6.655833,-3.03138 8.084614,-3.82234 0.876905,-0.47748 1.520534,-0.88923 1.942554,-1.2503 0.211088,-0.18059 0.368462,-0.34783 0.470721,-0.5188 0.102262,-0.17097 0.15196,-0.36455 0.0929,-0.54582 l -0.03895,-0.11954 c -0.04629,-0.14209 -0.107349,-0.26322 -0.218989,-0.35128 -0.111649,-0.0881 -0.278676,-0.11025 -0.409778,-0.0675 -0.704456,0.22951 -1.887601,0.84612 -3.604858,1.86067 -1.717264,1.01456 -3.957635,2.42557 -6.722634,4.23458 l -0.222363,0.14571 0.186771,0.18933 z m -1.667653,0.13321 c 0.166186,-0.0542 0.342742,-0.17117 0.609902,-0.36312 0.267156,-0.19194 0.608429,-0.45865 1.026606,-0.80087 1.055175,-0.84678 1.871537,-1.67626 2.447228,-2.49586 0.820494,-1.16812 1.358632,-2.58647 1.620904,-4.24506 0.02253,-0.10163 0.02056,-0.18728 0.02399,-0.3679 0.0035,-0.18378 0.0036,-0.43575 0.0014,-0.75814 -0.0045,-0.64478 -0.01993,-1.57005 -0.04696,-2.77689 -0.01383,-1.71394 0.306505,-3.17902 0.949031,-4.40947 0.0085,-0.008 0.016,-0.0146 0.03053,-0.0269 0.0424,-0.0358 0.107616,-0.0882 0.193957,-0.15612 0.171723,-0.13504 0.4286,-0.33152 0.765897,-0.58638 0.279197,-0.20059 0.48538,-0.41246 0.605932,-0.64952 0.120557,-0.23707 0.144024,-0.5041 0.06288,-0.75316 -0.07671,-0.23544 -0.17754,-0.42221 -0.338561,-0.54552 -0.161024,-0.12332 -0.383739,-0.15018 -0.579446,-0.0864 -0.849438,0.27675 -1.644326,1.22754 -2.492875,2.80827 -0.483846,0.90701 -0.776923,1.81733 -0.874201,2.72765 -0.03941,0.30146 -0.08247,0.52499 -0.123066,0.67537 -1.205787,-1.44555 -2.552936,-2.52684 -4.063424,-3.16687 l -2.69e-4,-8.2e-4 -8.27e-4,2.7e-4 c -1.491833,-0.62298 -2.875714,-0.74377 -4.12348,-0.33724 l -0.794028,0.25869 c -0.316217,0.10303 -0.564518,0.24547 -0.726825,0.45125 -0.1554,0.19702 -0.219301,0.44856 -0.145103,0.6763 0.105481,0.32375 0.434653,0.50429 0.879191,0.61152 l 0.0059,0.002 0.0065,6.4e-4 c 0.450271,0.0815 0.953115,0.0245 1.506612,-0.15579 0.22467,-0.0732 0.492481,-0.22553 0.836484,-0.45749 l 0.0081,-0.005 0.007,-0.006 c 0.293722,-0.23856 0.516871,-0.37301 0.580284,-0.39367 0.194036,-0.0632 0.487145,-0.0413 0.8799,0.11183 0.392757,0.15317 0.876817,0.43288 1.441287,0.8394 l 0.0011,5.6e-4 0.0011,5.6e-4 c 1.33714,0.93921 2.200148,2.04146 2.615156,3.31526 0.116922,0.35888 0.05083,0.6091 -0.239445,0.88038 -0.183665,0.16368 -0.320681,0.29802 -0.416805,0.41278 -0.04843,0.0578 -0.08704,0.11021 -0.117211,0.16953 -0.03017,0.0593 -0.06631,0.13655 -0.0299,0.2483 0.126173,0.38727 0.56778,1.01419 1.274008,1.93305 -0.02867,0.35716 -0.06765,0.65848 -0.119498,0.86185 -0.04484,0.17588 -0.0923,0.23892 -0.12525,0.28473 -0.750883,-0.19783 -1.387865,-0.24923 -1.889959,-0.0857 -0.214823,0.07 -0.391845,0.17754 -0.495889,0.34831 -0.104043,0.17077 -0.108835,0.38447 -0.04399,0.58349 0.08924,0.2739 0.326334,0.5146 0.698056,0.81797 0.175823,0.14349 0.311005,0.26332 0.400315,0.35385 0.08931,0.0905 0.129012,0.16836 0.120994,0.14375 0.09454,0.29019 -0.03535,0.66969 -0.517892,1.17481 -0.482539,0.50513 -1.2955,1.09764 -2.430397,1.75771 l -0.04721,0.0279 -0.02936,0.0471 c -0.167708,0.27526 -0.187844,0.61092 -0.07869,0.94594 0.06108,0.18749 0.212258,0.34073 0.398894,0.40435 l 0.06835,0.0233 z m 2.81988,-1.15461 c 2.122631,-1.37297 4.117658,-2.64847 5.524668,-3.47973 1.707782,-1.00896 2.899372,-1.62011 3.518354,-1.82177 0.02771,-0.009 -8.83e-4,-0.01 0.0056,-0.005 0.0066,0.005 0.04348,0.0484 0.0748,0.14451 l 0.03895,0.11954 c 0.0099,0.0305 0.01046,0.0817 -0.05313,0.18797 -0.06359,0.10631 -0.190129,0.24921 -0.379723,0.41142 -0.379188,0.32442 -1.005554,0.72945 -1.868868,1.19949 l -8.27e-4,2.7e-4 -8.27e-4,2.7e-4 c -1.191874,0.65981 -3.804514,1.86679 -6.859087,3.24257 z m -2.954623,0.74103 -0.650248,0.21186 c -0.03801,-0.0212 -0.07343,-0.0362 -0.09179,-0.0925 -0.07794,-0.23924 -0.05465,-0.40724 0.03635,-0.56581 1.101199,-0.64726 1.934014,-1.23687 2.450681,-1.77772 0.532665,-0.55759 0.780651,-1.10603 0.61649,-1.6099 -0.04251,-0.13048 -0.118276,-0.20537 -0.225687,-0.31425 -0.107411,-0.10888 -0.250827,-0.23633 -0.433947,-0.38579 -0.346173,-0.28252 -0.528241,-0.51887 -0.559732,-0.61553 -0.03864,-0.11861 -0.0277,-0.17377 0.0018,-0.22217 0.02952,-0.0484 0.103536,-0.11057 0.259275,-0.16131 0.411335,-0.13402 1.014449,-0.10713 1.799456,0.12049 l 0.10859,0.0316 0.08779,-0.0706 c 0.163951,-0.13088 0.239439,-0.32668 0.305689,-0.58655 0.06625,-0.25986 0.111971,-0.59235 0.141693,-1.00489 l 0.0062,-0.0824 -0.05085,-0.0656 c -0.736657,-0.95314 -1.137432,-1.59119 -1.227903,-1.83817 0.0108,-0.0159 0.0151,-0.0256 0.03553,-0.05 0.07176,-0.0857 0.199718,-0.21251 0.377023,-0.37034 l 0.0011,-0.002 0.0022,-0.002 c 0.383059,-0.35799 0.515458,-0.84495 0.356429,-1.33307 -0.447099,-1.3723 -1.381562,-2.55369 -2.776741,-3.53425 -0.583157,-0.41998 -1.092172,-0.71807 -1.537913,-0.89191 -0.445745,-0.17384 -0.836803,-0.22952 -1.172144,-0.12026 -0.20127,0.0656 -0.410932,0.21895 -0.719161,0.46929 l 0.01511,-0.0112 c -0.328127,0.22125 -0.581961,0.35669 -0.727853,0.40423 -0.503244,0.16395 -0.931374,0.20413 -1.289166,0.14034 -0.371655,-0.0919 -0.528558,-0.22094 -0.560664,-0.31948 -0.02928,-0.0899 -0.0202,-0.15398 0.07304,-0.27219 0.08633,-0.10945 0.253969,-0.22035 0.520057,-0.30704 l 0.794028,-0.25869 c 1.134095,-0.36949 2.397866,-0.2692 3.819983,0.32443 l 0.0011,5.6e-4 c 1.524666,0.64627 2.895927,1.7304 4.116756,3.26475 l 0.09377,0.11777 0.143783,-0.0468 c 0.116938,-0.0381 0.164396,-0.11663 0.20195,-0.18641 0.03756,-0.0698 0.06403,-0.14741 0.0903,-0.24118 0.05252,-0.18756 0.09754,-0.43918 0.140068,-0.7658 l 8.45e-4,-0.003 2.89e-4,-0.002 c 0.09074,-0.84908 0.364232,-1.70491 0.825577,-2.56974 0.827443,-1.54108 1.611122,-2.39322 2.243752,-2.59933 0.09545,-0.0311 0.126602,-0.0229 0.180147,0.0182 0.05353,0.041 0.128276,0.1469 0.189545,0.33496 0.04821,0.14797 0.03876,0.27232 -0.03698,0.42127 -0.07574,0.14895 -0.229143,0.31887 -0.471888,0.49327 l -0.0022,0.002 -0.0022,0.002 c -0.341261,0.25783 -0.599774,0.45524 -0.776693,0.59437 -0.08846,0.0696 -0.156385,0.12452 -0.205848,0.16624 -0.02472,0.0209 -0.04398,0.0383 -0.06162,0.0549 -0.01715,0.0162 -0.02733,0.008 -0.06557,0.0812 -0.688342,1.30892 -1.021216,2.85897 -1.006475,4.63905 l -5.58e-4,10e-4 -2.88e-4,0.002 c 0.027,1.20564 0.04312,2.12988 0.04754,2.77045 0.0022,0.32028 0.0018,0.56948 -0.0016,0.74659 -0.0034,0.1771 -0.01893,0.31063 -0.01322,0.28576 l -0.0023,0.007 -0.0012,0.008 c -0.253431,1.60916 -0.770857,2.96273 -1.549062,4.07065 -0.544075,0.77459 -1.331935,1.57947 -2.36496,2.4083 l -0.0014,10e-4 -8.27e-4,2.7e-4 c -0.413966,0.33878 -0.749677,0.60078 -1.004463,0.78384 -0.254786,0.18305 -0.44545,0.28809 -0.491013,0.30293 z"
       id="text4-7-6"
       inkscape:label="Decoration" /><path
       style="color:#000000;-inkscape-font-specification:'Bodoni Ornaments';fill:#000000;stroke-width:0.434969;-inkscape-stroke:none"
       d="m 47.041701,34.221517 c -0.428815,0 -0.836042,0.202278 -1.197867,0.564103 l -0.0035,0.0035 -0.0026,0.0035 c -0.33062,0.360677 -0.516526,0.74893 -0.516526,1.149441 0,0.05016 0.0047,0.07379 0.01187,0.131683 0.006,0.04752 0.01501,0.116632 0.02549,0.191147 l -0.301591,-0.134232 -0.07221,0.01783 c -0.27735,0.06934 -0.439767,0.331455 -0.532668,0.664346 -0.0929,0.332895 -0.133379,0.774654 -0.133379,1.342289 0,0.427275 0.102618,1.248862 0.304987,2.518916 0.19351,1.214425 0.492203,2.882733 0.869939,4.896801 -0.979677,-2.678258 -1.902851,-4.779364 -2.76613,-6.183018 -0.462964,-0.752758 -0.910269,-1.324599 -1.354182,-1.716941 -0.443916,-0.392338 -0.893574,-0.609975 -1.346538,-0.609975 -0.345757,0 -0.680327,0.09607 -0.988872,0.281199 l -0.0051,0.0026 -0.0043,0.0035 c -0.132231,0.08816 -0.23461,0.16665 -0.314331,0.246371 -0.07972,0.07972 -0.15802,0.159586 -0.15802,0.310085 0,0.255184 0.158868,0.457906 0.397593,0.69663 l 0.03397,0.03484 0.04588,0.01614 c 1.08935,0.394021 1.790142,0.819578 2.244511,1.24289 -0.336049,-0.146319 -0.669257,-0.283587 -1.018611,-0.467253 l -0.0035,-0.0017 c -0.0013,-4.35e-4 -0.0022,-8.7e-4 -0.0035,-0.0017 -0.192848,-0.110091 -0.34684,-0.194236 -0.463003,-0.252317 -0.05892,-0.02945 -0.107985,-0.05288 -0.152069,-0.07051 -0.04408,-0.01762 -0.06735,-0.03654 -0.153766,-0.03654 -0.446692,0 -0.867586,0.181839 -1.232699,0.516526 l -0.0035,0.0035 -0.0035,0.0035 c -0.33651,0.33651 -0.523325,0.733001 -0.523325,1.15624 0,0.964787 0.321656,1.719376 0.967637,2.180792 l 0.01105,0.0077 1.66257,0.914963 c 0.767273,0.557008 1.633131,1.579086 2.569886,3.066872 l 8.7e-4,8.7e-4 v 8.7e-4 c 1.126039,1.757715 1.89165,3.523964 2.30398,5.30034 v 1.346534 c 0,0.0886 -0.09891,0.315609 -0.192848,0.530119 -0.757325,-3.04793 -1.881121,-5.41094 -3.395649,-7.065702 -1.534402,-1.676476 -3.314131,-2.534205 -5.296942,-2.534205 -1.324673,0 -2.434019,0.410772 -3.282657,1.230146 l -0.0017,0.0017 -8.7e-4,8.7e-4 c -0.819738,0.819743 -1.232694,1.88932 -1.232694,3.160326 0,0.598083 0.10919,1.07437 0.367005,1.415347 0.257811,0.340976 0.664912,0.513977 1.144344,0.513977 h 0.343216 v -0.217485 c 0,-0.325988 -0.04502,-0.65131 -0.133378,-0.975279 l 0.0051,0.02123 c -0.02775,-0.166541 -0.04836,-0.294326 -0.06202,-0.383147 -0.0068,-0.04441 -0.01214,-0.0792 -0.01531,-0.102792 -0.003,-0.02358 -0.0035,-0.05053 -0.0035,-0.02123 0,-0.821675 0.221004,-1.47134 0.656699,-1.985396 0.428697,-0.475312 0.918238,-0.694672 1.486712,-0.731466 -0.925693,0.838821 -1.492658,1.780634 -1.492658,2.842594 v 0.321129 l 0.0077,0.02806 c 0.08876,0.325448 0.2044,0.583689 0.368706,0.773936 0.164305,0.190251 0.392325,0.304987 0.634611,0.304987 0.114254,0 0.188951,-0.02875 0.333874,-0.07221 0.144923,-0.0435 0.334931,-0.106967 0.573446,-0.191147 l 0.0035,-8.7e-4 0.0035,-8.7e-4 c 0.483334,-0.187963 0.903849,-0.277802 1.257336,-0.277802 0.07511,0 0.214944,0.0221 0.399288,0.07476 l 0.02888,0.0085 h 0.07221 c 0.203274,0 0.421507,-0.04869 0.660949,-0.138477 0.108564,-0.04071 0.196314,-0.07146 0.258263,-0.09005 0.06195,-0.01857 0.10979,-0.0221 0.08326,-0.0221 0.79793,0 1.726428,0.523995 2.763582,1.643031 l 8.7e-4,8.7e-4 c 1.15169,1.230215 1.806597,2.688889 2.024473,4.37433 l -0.104493,0.02801 c -0.835045,-1.578304 -1.867775,-2.7248 -3.123792,-3.366762 l -8.7e-4,-8.7e-4 h -8.7e-4 C 39.268917,52.107248 37.749165,51.8433 35.80838,51.8433 c -1.722235,0 -3.20889,0.626447 -4.414259,1.860516 h -8.7e-4 c -1.172095,1.20068 -1.773861,2.557341 -1.773861,4.035358 0,1.261097 0.568565,2.388559 1.661717,3.33788 0.881322,0.767599 1.636367,1.180872 2.314176,1.180872 0.227441,0 0.450663,-0.09264 0.669443,-0.248916 l 0.0909,-0.06542 v -0.362756 c 0,-0.189938 -0.07263,-0.373926 -0.199642,-0.519075 -0.127007,-0.145149 -0.301555,-0.256184 -0.516526,-0.348314 l 0.006,0.0026 c -0.846032,-0.395726 -1.468813,-0.822326 -1.872408,-1.264977 -0.403595,-0.442655 -0.590436,-0.891905 -0.590436,-1.377122 0,-0.721409 0.161783,-1.139693 0.391642,-1.416199 0.440985,1.12684 0.842318,1.96082 1.222503,2.424615 0.503247,0.679235 1.164461,1.045796 1.925927,1.045796 0.586156,0 1.074195,-0.254278 1.373724,-0.727216 0.299528,-0.472938 0.43072,-1.137493 0.43072,-1.995591 0,-0.96441 0.246462,-1.646616 0.716172,-2.097535 0.469706,-0.450924 1.188654,-0.691536 2.197782,-0.691536 0.5052,0 1.149233,0.288219 1.908089,0.911565 l 0.0035,0.0026 0.0035,0.0026 c 0.788343,0.598052 1.124805,1.09376 1.124805,1.371175 0,0.08678 -0.145402,0.346718 -0.54456,0.666047 -0.670905,0.531171 -1.10226,0.90267 -1.321898,1.153686 -1.337213,1.480457 -2.016831,3.167577 -2.016831,5.028484 0,1.088367 0.230365,2.085908 0.69238,2.981066 l 8.7e-4,0.0017 8.7e-4,8.7e-4 c 0.459041,0.860704 0.947811,1.387065 1.531736,1.490109 l -0.0051,-8.7e-4 c 0.214127,0.04284 0.594995,0.235788 1.084875,0.589588 0.253639,0.183187 0.458818,0.321629 0.621867,0.417979 0.163052,0.09635 0.250446,0.165663 0.423925,0.165663 0.24745,0 0.474795,-0.0712 0.62867,-0.235327 0.15387,-0.164127 0.214935,-0.393221 0.214935,-0.649905 0,-0.203275 -0.04401,-0.520663 -0.128285,-0.99822 v -0.0017 -8.7e-4 c -0.08185,-0.436535 -0.121483,-0.800978 -0.121483,-1.087423 0,-0.809191 0.289477,-1.478743 0.892875,-2.055908 0.530153,-0.503338 1.032256,-0.733163 1.519843,-0.733163 1.104226,0 1.964648,0.278824 2.615762,0.825763 l 0.0026,0.0017 0.0017,0.0017 c 0.650387,0.52031 0.962539,1.179432 0.962539,2.043168 0,0.204579 -0.02553,0.441929 -0.07901,0.70937 l -0.0026,0.01018 -8.7e-4,0.01105 c -0.02806,0.280525 -0.04332,0.456422 -0.04332,0.564103 0,0.312813 0.07617,0.584808 0.258263,0.776485 0.182096,0.191683 0.450085,0.276106 0.752701,0.276106 0.299729,0 0.59269,-0.151774 0.892875,-0.406936 0.300185,-0.255157 0.61512,-0.621866 0.955745,-1.104413 l 8.7e-4,-0.0017 8.7e-4,-0.0017 c 0.802222,-1.174678 1.207209,-2.475254 1.207209,-3.880744 0,-2.354789 -1.231833,-4.512945 -3.595291,-6.450629 0.377832,-0.475478 0.763385,-0.950799 1.163882,-1.42639 0.423395,-0.502781 0.891766,-0.850778 1.407705,-1.05939 0.394373,-0.103788 0.80133,-0.158015 1.223351,-0.158015 0.610718,0 1.162786,0.235009 1.688054,0.73401 0.512559,0.486931 0.767143,1.126297 0.767143,1.971803 v 1.03815 0.006 c -0.01309,0.170582 -0.02384,0.307645 -0.03058,0.401838 -0.007,0.09817 -0.01105,0.132487 -0.01105,0.182652 0,0.209129 0.08558,0.410219 0.229377,0.579392 0.143796,0.169177 0.343569,0.313874 0.596382,0.447714 l 0.0017,0.0017 0.0026,8.7e-4 c 0.532786,0.266392 1.12497,0.39844 1.767063,0.39844 0.769569,0 1.432123,-0.332595 1.925078,-0.95999 0.381225,-0.485195 0.646352,-1.190685 0.856346,-2.012585 4.35e-4,0.0059 0.0077,0.03723 0.0077,0.04076 0,1.207127 -0.366445,2.139775 -1.101865,2.849388 -2.91e-4,2.83e-4 -4.35e-4,4.35e-4 -8.7e-4,8.7e-4 -0.740952,0.686621 -1.623135,1.024557 -2.68797,1.024557 -0.204584,0 -0.376162,-0.02571 -0.515678,-0.07221 l -0.08241,-0.02719 -0.07901,0.03654 c -0.217772,0.101631 -0.385722,0.19712 -0.513125,0.299042 -0.127407,0.101926 -0.238724,0.220951 -0.238724,0.399289 0,0.149216 0.06193,0.297205 0.164814,0.405234 0.102883,0.108034 0.237911,0.182539 0.398436,0.238724 0.321051,0.11237 0.755851,0.158016 1.3253,0.158016 1.208544,0 2.354623,-0.56576 3.412638,-1.652374 l 8.7e-4,-8.7e-4 8.7e-4,-0.0017 c 1.056831,-1.113965 1.604797,-2.298517 1.604797,-3.531581 0,-2.06991 -0.543137,-3.663172 -1.653222,-4.729438 -1.110085,-1.066266 -2.760742,-1.58441 -4.911247,-1.58441 -1.509683,0 -2.926795,0.371933 -4.237553,1.11206 -3.61e-4,2e-4 -4.35e-4,8.7e-4 -8.7e-4,8.7e-4 -1.310471,0.71244 -2.305494,1.66066 -2.966625,2.839196 l -0.0026,0.0051 -0.0026,0.0044 c -0.09,0.179999 -0.241404,0.526504 -0.464704,1.05684 l -0.0035,0.0077 -0.0026,0.0085 c -0.07468,0.224053 -0.151644,0.287532 -0.224283,0.363608 -0.161409,-0.16775 -0.271004,-0.408427 -0.271004,-0.837659 0,-1.273812 0.798887,-2.626649 2.471339,-4.052348 1.69347,-1.447647 3.529271,-2.161254 5.537363,-2.161254 0.273644,0 0.593324,0.115902 0.959138,0.377201 l 0.0051,0.0035 0.0044,0.0026 c 0.196845,0.126546 0.351698,0.222413 0.469801,0.288846 0.05905,0.03323 0.109073,0.05889 0.153766,0.07901 0.04469,0.0201 0.06679,0.0425 0.162265,0.0425 0.457397,0 0.848865,-0.189581 1.088272,-0.544564 0.239407,-0.354983 0.33982,-0.845907 0.33982,-1.46887 0,-0.08674 -0.01731,-0.133844 -0.04163,-0.221729 -0.02432,-0.08789 -0.0594,-0.199447 -0.105345,-0.337276 -0.06167,-0.185022 -0.1725,-0.488335 -0.274405,-0.768838 0.06097,0.03593 0.09695,0.02558 0.17501,0.103644 l 0.0085,0.0085 0.0085,0.0068 c 0.537591,0.435195 0.796877,0.996967 0.796877,1.751773 0,0.234431 -0.02679,0.546983 -0.08156,0.930256 -0.05609,0.392603 -0.08581,0.634837 -0.08581,0.782436 0,0.189355 0.05059,0.370019 0.178407,0.497835 0.127816,0.127816 0.309329,0.178407 0.498684,0.178407 0.482816,0 0.890378,-0.245775 1.129054,-0.675394 0.238676,-0.429619 0.340668,-1.025031 0.340668,-1.796797 0,-1.131147 -0.59466,-2.123868 -1.716089,-2.930097 -1.120681,-0.833323 -2.397315,-1.253934 -3.804284,-1.253934 -2.164212,0 -4.281964,1.141995 -6.339334,3.368463 h -8.7e-4 c -2.169278,2.359095 -3.420189,5.157583 -3.791535,8.350223 -0.03475,-0.03132 -0.09914,-0.07107 -0.123188,-0.09855 -0.07673,-0.08769 -0.09175,-0.144971 -0.09175,-0.169908 0,-1.027119 0.217111,-2.290096 0.6584,-3.779644 v -8.7e-4 c 0.551058,-1.845783 1.293807,-3.409763 2.223271,-4.69461 l 8.7e-4,-8.7e-4 c 0.821379,-1.149928 1.704014,-1.989053 2.644648,-2.526558 0.15956,-0.09118 0.685077,-0.321664 1.513898,-0.653306 l 0.0043,-0.0017 c 0.679257,-0.255136 1.185392,-0.525143 1.524942,-0.83341 0.277854,-0.243635 0.536165,-0.687886 0.847002,-1.366073 l 8.7e-4,-0.0017 8.7e-4,-0.0026 c 0.126011,-0.294022 0.220721,-0.525721 0.285449,-0.69833 0.03236,-0.0863 0.05766,-0.157641 0.07561,-0.217485 0.01796,-0.05984 0.03227,-0.09721 0.03227,-0.172456 0,-0.349259 -0.160095,-0.659648 -0.445165,-0.841052 -0.285066,-0.181409 -0.667895,-0.25317 -1.150289,-0.25317 -0.863314,0 -1.808963,0.385035 -2.795865,0.949799 0.317645,-0.300564 0.70127,-0.610175 1.165578,-0.928559 l 0.0017,-0.0017 0.0026,-0.0017 c 0.408301,-0.295666 0.717099,-0.542707 0.931957,-0.750152 0.107428,-0.103723 0.191569,-0.197176 0.254861,-0.288846 0.0633,-0.09167 0.11384,-0.182887 0.11384,-0.306688 0,-0.123323 -0.01796,-0.240399 -0.0926,-0.344918 -0.07465,-0.104519 -0.212683,-0.164814 -0.333022,-0.164814 -0.08641,0 -0.09979,0.01431 -0.15377,0.02975 -0.05398,0.01544 -0.122057,0.03702 -0.207289,0.06542 -2.545279,0.813601 -4.479296,3.46844 -5.890775,7.747042 -6.1e-5,-0.0048 -0.0035,-0.02001 -0.0035,-0.02462 0,-0.168333 0.07776,-0.585386 0.242969,-1.184273 0.16521,-0.598883 0.414343,-1.392832 0.747604,-2.378738 v -8.7e-4 c 0.671266,-2.01379 1.013513,-3.481959 1.013513,-4.453337 0,-0.671793 -0.139673,-1.172451 -0.509728,-1.431493 l -0.01357,-0.0085 -0.411185,-0.205588 c -0.02788,-0.302517 -0.06237,-0.61101 -0.112139,-0.934505 l -8.7e-4,-0.006 -8.7e-4,-0.006 c -0.06508,-0.30942 -0.230236,-0.568948 -0.479987,-0.73258 -0.249751,-0.163631 -0.568326,-0.233626 -0.943848,-0.233626 z m 0,0.434969 c 0.320424,0 0.552076,0.06143 0.705972,0.162265 0.153035,0.100261 0.244022,0.23775 0.290546,0.455356 0.05423,0.353852 0.09605,0.694707 0.123188,1.020312 l 0.01018,0.121483 0.585343,0.292247 c 0.185292,0.132065 0.321977,0.465552 0.321977,1.071281 0,0.865933 -0.325613,2.320831 -0.990573,4.315713 -0.334691,0.990155 -0.58646,1.789803 -0.75525,2.401674 -0.168846,0.612067 -0.258263,1.022735 -0.258263,1.29981 0,0.225936 0.04434,0.536891 0.129129,0.960843 l 0.422229,0.01953 c 1.410362,-4.756528 3.399076,-7.487904 5.912011,-8.289905 h 0.0017 l 8.7e-4,-8.7e-4 c 0.0818,-0.02727 0.145993,-0.04705 0.189451,-0.05947 0.0211,-0.006 0.0061,-0.0043 0.01701,-0.006 0.0026,0.009 0.0085,0.0154 0.0085,0.06796 0,-0.02636 8.7e-4,0.005 -0.03654,0.05947 -0.03762,0.05448 -0.105245,0.131439 -0.199647,0.222582 -0.188794,0.182283 -0.485378,0.422138 -0.884379,0.711071 -0.986859,0.677312 -1.677298,1.331145 -2.064404,1.986248 l 0.31688,0.285448 c 1.369609,-1.013509 2.581964,-1.502005 3.628426,-1.502005 0.436262,0 0.742406,0.07431 0.916663,0.185205 0.174262,0.110891 0.243822,0.238707 0.243822,0.474047 0,-0.03349 -8.7e-4,0.003 -0.01444,0.04757 -0.01335,0.04455 -0.03514,0.108725 -0.06542,0.189451 -0.0601,0.160268 -0.152939,0.387001 -0.276105,0.674541 -0.301234,0.657239 -0.571928,1.07537 -0.739109,1.221655 l -8.69e-4,8.7e-4 -0.0017,0.0017 c -0.271995,0.247267 -0.738017,0.505921 -1.391563,0.751 l -0.0026,8.7e-4 -0.0017,8.7e-4 c -0.837464,0.334987 -1.34279,0.550067 -1.572519,0.68134 -1.008028,0.576017 -1.934221,1.462132 -2.78312,2.650594 -0.963079,1.331567 -1.723831,2.940862 -2.286138,4.824592 v 8.7e-4 c -0.449358,1.516577 -0.67709,2.815313 -0.67709,3.90368 0,0.169929 0.08151,0.321198 0.199642,0.456209 0.118133,0.13501 0.278589,0.261986 0.484243,0.39419 l 0.30159,0.193697 0.03315,-0.355962 c 0.302216,-3.269442 1.546154,-6.085907 3.743115,-8.475102 2.006978,-2.171936 4.00842,-3.228289 6.019904,-3.228289 1.321159,0 2.494488,0.386852 3.545174,1.168131 l 8.7e-4,8.7e-4 0.0017,8.7e-4 c 1.047823,0.752284 1.537686,1.595794 1.537686,2.579233 0,0.731488 -0.106555,1.263255 -0.285449,1.585258 -0.178894,0.322008 -0.396979,0.451964 -0.749304,0.451964 -0.116859,0 -0.165854,-0.02566 -0.191147,-0.05097 -0.02527,-0.02531 -0.05097,-0.07344 -0.05097,-0.190299 0,-0.07511 0.02632,-0.334409 0.08156,-0.72127 0.0566,-0.396188 0.08581,-0.724772 0.08581,-0.991422 0,-0.85464 -0.324779,-1.568142 -0.948947,-2.078848 -0.214479,-0.21233 -0.439584,-0.351712 -0.688134,-0.351712 -0.100334,0 -0.15394,0.0311 -0.222582,0.06541 l -0.175006,0.08666 0.06796,0.1835 c 0.180473,0.4859 0.315322,0.863562 0.404382,1.130751 0.04453,0.133596 0.07762,0.23952 0.09855,0.315183 0.02092,0.07566 0.02632,0.137259 0.02632,0.106193 0,0.574072 -0.101666,0.981517 -0.26591,1.225052 -0.164244,0.243535 -0.377305,0.353412 -0.727212,0.353412 0.06764,0 0.04106,0.007 0.01614,-0.0043 -0.02492,-0.01122 -0.06664,-0.03258 -0.118938,-0.06202 -0.104601,-0.05884 -0.254826,-0.151256 -0.447713,-0.275253 l 0.0085,0.006 c -0.413651,-0.295462 -0.817842,-0.457905 -1.212307,-0.457905 -2.111936,0 -4.061821,0.762562 -5.820263,2.265746 -1.723143,1.469174 -2.623408,2.928791 -2.623408,4.382824 0,0.626025 0.193309,1.114174 0.609127,1.356734 l 0.101943,0.05947 0.105428,-0.05271 c 0.253483,-0.126742 0.406771,-0.392856 0.526722,-0.752702 l -0.006,0.01614 c 0.220081,-0.522699 0.370837,-0.865824 0.448562,-1.022008 v -8.7e-4 c 0.619231,-1.103583 1.545154,-1.990863 2.795017,-2.670133 l 0.0017,-8.7e-4 0.0017,-8.7e-4 c 1.249402,-0.706181 2.587015,-1.057689 4.026863,-1.057689 2.080871,0 3.604051,0.497014 4.609657,1.462924 1.005601,0.96591 1.519843,2.421521 1.519843,4.415956 0,1.105335 -0.481837,2.175133 -1.485011,3.232539 -1.001399,1.027763 -2.025661,1.518991 -3.099156,1.518991 -0.544077,0 -0.945167,-0.05173 -1.180876,-0.134227 -0.117855,-0.04124 -0.191374,-0.08931 -0.227681,-0.127433 -0.03632,-0.0381 -0.04502,-0.05969 -0.04502,-0.105346 0,0.03915 -0.0058,0.0048 0.07561,-0.06032 0.07273,-0.05818 0.212605,-0.135706 0.380598,-0.217484 0.166937,0.04332 0.339542,0.07731 0.537766,0.07731 1.160642,0 2.169709,-0.384569 2.987012,-1.143495 l 0.0017,-0.0017 0.0017,-8.7e-4 c 0.822923,-0.793532 1.235243,-1.865905 1.235243,-3.163723 0,-0.131843 -0.03284,-0.282516 -0.09005,-0.511428 l -0.0051,-0.02379 -0.471502,-0.941299 -0.115537,0.64566 c -0.205035,1.148201 -0.532589,1.992402 -0.958293,2.534204 -0.4257,0.541798 -0.933392,0.79348 -1.583558,0.79348 -0.582481,0 -1.102469,-0.118112 -1.571666,-0.352564 h -8.7e-4 c -0.217471,-0.115754 -0.371816,-0.234936 -0.463855,-0.343217 -0.09283,-0.109208 -0.125733,-0.200251 -0.125733,-0.297345 0,0.02231 0.0026,-0.05452 0.0094,-0.151217 0.0069,-0.0967 0.01753,-0.236397 0.03145,-0.417131 l 8.7e-4,-0.0077 v -1.052591 c 0,-0.936123 -0.302108,-1.716071 -0.90307,-2.286985 -0.588257,-0.55884 -1.261593,-0.853797 -1.987096,-0.853797 -0.463534,0 -0.913762,0.0587 -1.349936,0.175005 l -0.01274,0.0035 -0.01275,0.0044 c -0.593315,0.237328 -1.124178,0.6378 -1.588656,1.189371 -0.446848,0.530628 -0.879934,1.061286 -1.298961,1.592053 l -0.134232,0.169912 0.169912,0.135075 c 2.416576,1.922277 3.592742,3.997885 3.592742,6.26033 0,1.321341 -0.374683,2.525536 -1.129898,3.632676 -0.327493,0.463943 -0.62526,0.806468 -0.881835,1.024553 -0.256571,0.218089 -0.465147,0.303291 -0.610823,0.303291 -0.226306,0 -0.354304,-0.05432 -0.43667,-0.141026 -0.08237,-0.0867 -0.139325,-0.232652 -0.139325,-0.476596 0,-0.05935 0.01314,-0.244535 0.04076,-0.520775 0.05497,-0.280616 0.08495,-0.539301 0.08495,-0.773937 0,-0.972713 -0.383735,-1.78821 -1.123952,-2.381287 -0.740505,-0.620949 -1.716306,-0.92601 -2.893568,-0.92601 -0.625629,0 -1.236726,0.299093 -1.819733,0.852948 l -8.7e-4,8.7e-4 c -0.677147,0.647709 -1.027106,1.453481 -1.027106,2.370244 0,0.325987 0.0431,0.712997 0.128281,1.167279 0.08244,0.467557 0.121487,0.790369 0.121487,0.920912 0,0.188725 -0.0428,0.293139 -0.0977,0.351712 -0.05492,0.05858 -0.140817,0.09855 -0.310938,0.09855 0.06213,0 -0.05902,-0.02075 -0.202191,-0.105345 -0.14317,-0.0846 -0.341295,-0.21718 -0.58874,-0.395892 -0.512289,-0.369985 -0.9113,-0.594968 -1.253934,-0.663497 l -0.0026,-8.7e-4 h -0.0026 c -0.362064,-0.06389 -0.791327,-0.456809 -1.222499,-1.26413 -0.428797,-0.830795 -0.643959,-1.754105 -0.643959,-2.781424 0,-1.757054 0.628231,-3.325501 1.906388,-4.739638 l 0.0017,-8.7e-4 8.7e-4,-0.0017 c 0.169942,-0.194218 0.601297,-0.574077 1.26583,-1.100163 l 8.7e-4,-8.7e-4 c 0.435978,-0.34878 0.707673,-0.646382 0.707673,-1.005014 0,-0.556056 -0.468805,-1.088306 -1.290467,-1.712691 l -0.0017,-8.7e-4 c -0.799408,-0.656326 -1.518951,-1.009264 -2.182493,-1.009264 -1.078723,0 -1.925156,0.260921 -2.499372,0.81217 -0.574216,0.551246 -0.849552,1.371946 -0.849552,2.41187 0,0.812183 -0.133361,1.400614 -0.362755,1.762817 -0.229394,0.362199 -0.53503,0.525021 -1.006719,0.525021 -0.629253,0 -1.135505,-0.272343 -1.57846,-0.871639 l -0.0035,-0.0051 -0.0044,-0.0044 c -0.354952,-0.431015 -0.80227,-1.325525 -1.29981,-2.652294 l -0.09345,-0.24892 -0.225979,0.141025 c -0.539345,0.337093 -0.769691,1.041321 -0.769691,2.021929 0,0.600466 0.244043,1.166374 0.703427,1.670212 0.459385,0.503843 1.13096,0.954501 2.010885,1.366078 l 0.0026,0.0017 0.0035,8.7e-4 c 0.174762,0.0749 0.292347,0.15862 0.360206,0.236175 0.06786,0.07756 0.0926,0.143483 0.0926,0.231926 v 0.110443 c -0.122696,0.07066 -0.242021,0.131678 -0.325374,0.131678 -0.491394,0 -1.184087,-0.33818 -2.028727,-1.073831 -1.022535,-0.887989 -1.512197,-1.876983 -1.512197,-3.009952 0,-1.361458 0.540053,-2.593513 1.650673,-3.731223 1.133026,-1.159998 2.485001,-1.729681 4.103326,-1.729681 1.90086,0 3.360181,0.265166 4.370932,0.770543 1.202343,0.615047 2.215399,1.714941 3.035438,3.327685 l 0.07986,0.158016 0.808769,-0.220882 -0.01953,-0.184353 c -0.199421,-1.851747 -0.931274,-3.460281 -2.18589,-4.800804 l -8.7e-4,-8.7e-4 c -1.078185,-1.163025 -2.098749,-1.781503 -3.082162,-1.781503 -0.08221,0 -0.1309,0.01762 -0.208141,0.04076 -0.07724,0.02318 -0.171309,0.05575 -0.285449,0.09855 -0.205967,0.07724 -0.378097,0.111291 -0.508879,0.111291 h -0.02975 c -0.179747,-0.04884 -0.336819,-0.08325 -0.47065,-0.08325 -0.423921,0 -0.892692,0.105123 -1.408552,0.304987 -8.7e-4,2.66e-4 -8.7e-4,4.35e-4 -0.0017,8.7e-4 -0.0017,8.7e-4 -0.003,1.31e-4 -0.0051,8.7e-4 -0.23076,0.08136 -0.415248,0.143092 -0.547109,0.182653 -0.133457,0.04002 -0.239725,0.05352 -0.20899,0.05352 -0.119603,0 -0.204831,-0.03867 -0.304987,-0.154614 -0.09735,-0.112722 -0.193766,-0.312769 -0.271008,-0.587039 v -0.251469 c 0,-1.067092 0.534086,-2.012046 1.667668,-2.875725 L 36.510638,46.175438 36.1989,46.01921 c -0.133483,-0.06674 -0.252461,-0.06457 -0.431572,-0.06457 -0.753946,0 -1.422785,0.313347 -1.957362,0.90732 l -0.0017,0.0026 -0.0026,0.0026 c -0.509157,0.599009 -0.761196,1.367261 -0.761196,2.269996 0,0.04319 0.003,0.04955 0.0068,0.07816 0.0039,0.02862 0.009,0.06522 0.01614,0.111291 0.01418,0.09213 0.0358,0.221582 0.06372,0.389093 l 0.0017,0.01105 0.0026,0.01018 c 0.05679,0.208229 0.06928,0.41497 0.08496,0.621872 -0.301921,-0.02553 -0.521037,-0.119774 -0.671997,-0.319429 -0.173675,-0.229703 -0.280351,-0.609566 -0.280351,-1.152838 0,-1.178005 0.367005,-2.112119 1.105265,-2.851089 0.765755,-0.738651 1.742853,-1.106962 2.978518,-1.106962 1.858836,0 3.503707,0.784772 4.975813,2.39318 1.469579,1.605649 2.585236,3.936571 3.331082,7.002835 l 0.02636,0.106193 0.575142,0.246371 0.0943,-0.17501 c 0.202591,-0.376239 0.317732,-0.671388 0.317732,-0.93875 v -1.402606 l -0.0051,-0.02379 C 45.243407,50.300729 44.45285,48.482136 43.300299,46.682816 l -8.7e-4,-8.7e-4 c -0.9543,-1.515485 -1.840159,-2.578206 -2.686274,-3.190908 l -0.01105,-0.0077 -1.661718,-0.914114 c -0.521515,-0.373791 -0.784136,-0.953731 -0.784136,-1.824831 0,-0.298723 0.120982,-0.5694 0.393343,-0.843605 0.301642,-0.27514 0.603224,-0.400985 0.934505,-0.400985 -0.05858,0 -0.03402,-0.0044 -0.0085,0.006 0.02553,0.01022 0.06735,0.02901 0.119786,0.05522 0.104867,0.05244 0.255632,0.134428 0.448562,0.24467 l 0.0035,0.0017 0.0035,0.0017 c 0.535464,0.281821 1.057823,0.522242 1.56742,0.720418 l 0.25996,0.101096 0.0875,-0.70258 -0.05692,-0.07136 c -0.482077,-0.602594 -1.377139,-1.11313 -2.662491,-1.585259 -0.179899,-0.189612 -0.254866,-0.345122 -0.254866,-0.367005 0,0.06699 -0.01496,0.04302 0.03058,-0.0026 0.04458,-0.04458 0.128546,-0.111013 0.242969,-0.18775 0.247137,-0.147585 0.496544,-0.218333 0.762045,-0.218333 0.312586,0 0.663837,0.152387 1.058541,0.501233 0.394704,0.348845 0.82304,0.888772 1.271776,1.61839 0.897463,1.459239 1.879289,3.672959 2.934342,6.629884 l 0.115536,0.323678 0.242974,-0.24297 c 0.106937,-0.106937 0.176802,-0.244861 0.291395,-0.474051 l 0.03314,-0.06541 -0.01357,-0.07221 c -0.403429,-2.14235 -0.706037,-3.845985 -0.907319,-5.109192 -0.201278,-1.263203 -0.29989,-2.097909 -0.29989,-2.4501 0,-0.545886 0.0431,-0.959424 0.117237,-1.225047 0.06587,-0.236019 0.138421,-0.292617 0.194549,-0.319433 l 0.376348,0.166511 0.101948,-0.07646 c 0.139191,-0.104393 0.254014,-0.244601 0.254014,-0.424774 v -0.01531 l -0.0026,-0.01527 c -0.01383,-0.09671 -0.02392,-0.172518 -0.03058,-0.22598 -0.0067,-0.05347 -0.0085,-0.09964 -0.0085,-0.07731 0,-0.26631 0.121234,-0.54556 0.400137,-0.851248 0.30433,-0.30253 0.591949,-0.434121 0.885232,-0.434121 z M 46.20659,57.688617 c -1.823539,0 -3.372182,0.533203 -4.609652,1.598003 -1.240358,1.067284 -1.87156,2.477711 -1.87156,4.172987 0,1.041272 0.0775,1.827893 0.249768,2.382139 0.08613,0.277119 0.196237,0.499484 0.349168,0.663498 0.15293,0.164009 0.361011,0.26166 0.579392,0.26166 h 0.801974 v -0.926859 c 0,-0.288075 -0.156958,-0.574015 -0.41968,-0.924309 l 0.01187,0.01701 c -0.214879,-0.349176 -0.302439,-0.60927 -0.302439,-0.679639 0,-1.158315 0.522934,-2.297891 1.609043,-3.438976 l 8.7e-4,-8.7e-4 c 3.04e-4,-3.22e-4 4.35e-4,-4.35e-4 8.7e-4,-8.7e-4 1.114174,-1.140681 2.224185,-1.686358 3.349772,-1.686358 1.047824,0 2.014417,0.466996 2.931797,1.445085 0.917377,0.978085 1.771204,2.468307 2.544401,4.470327 l 0.217485,0.564103 0.191995,-0.573446 c 0.224996,-0.67499 0.344918,-1.109959 0.344918,-1.405155 0,-1.450614 -0.601211,-2.804948 -1.77046,-4.031961 l -0.0017,-8.7e-4 c -1.174769,-1.260084 -2.592521,-1.905539 -4.207819,-1.905539 z m 0,0.434969 c 1.501971,5e-6 2.783246,0.579175 3.890939,1.767916 l 8.7e-4,8.69e-4 8.7e-4,8.7e-4 c 1.112308,1.166566 1.652374,2.401318 1.652374,3.733772 0,0.08194 -0.112352,0.443908 -0.175858,0.691532 -0.719217,-1.725728 -1.498482,-3.115198 -2.371091,-4.045554 -0.975606,-1.040168 -2.069458,-1.581861 -3.248677,-1.581861 -1.267839,0 -2.495349,0.622493 -3.663254,1.818885 l -8.7e-4,8.7e-4 -8.7e-4,0.0017 c -1.139676,1.196661 -1.73053,2.44979 -1.73053,3.740566 0,0.263687 0.135624,0.532706 0.366153,0.907319 l 0.006,0.0085 0.006,0.0085 c 0.238363,0.317819 0.332173,0.560993 0.332173,0.66265 v 0.491889 h -0.367005 c -0.101757,0 -0.174488,-0.02971 -0.26166,-0.123183 -0.08717,-0.09349 -0.177533,-0.258259 -0.251469,-0.496139 -0.147872,-0.475761 -0.230229,-1.234265 -0.230229,-2.253006 0,-1.589604 0.566625,-2.850632 1.720338,-3.843358 1.156596,-0.995214 2.586184,-1.492658 4.325904,-1.492662 z m 0.501237,6.162632 c -0.526152,0 -1.047763,0.291525 -1.570818,0.813871 -0.530493,0.501946 -0.818116,1.078884 -0.818116,1.699947 0,0.734824 0.208798,1.409196 0.621023,1.99984 2.48e-4,3.7e-4 4.35e-4,4.35e-4 8.7e-4,8.7e-4 0.413469,0.619701 0.931134,0.972735 1.516446,0.972735 0.681249,0 1.269689,-0.197611 1.728833,-0.595534 0.45928,-0.398044 0.701728,-0.931652 0.701728,-1.542783 0,-0.949408 -0.202126,-1.746994 -0.621023,-2.375341 -0.414917,-0.622381 -0.949873,-0.973583 -1.558921,-0.973583 z m 0,0.434969 c 0.448797,0 0.83247,0.233074 1.197013,0.779887 0.360568,0.540849 0.547962,1.246169 0.547962,2.134068 0,0.502389 -0.175502,0.888264 -0.551359,1.214008 -0.375996,0.325861 -0.844936,0.48934 -1.444232,0.48934 -0.41651,0 -0.789517,-0.231082 -1.155388,-0.779887 l -0.0017,-0.0017 -8.7e-4,-0.0026 C 44.933935,68.032422 44.75384,67.45534 44.75384,66.799985 c 0,-0.491516 0.212905,-0.942453 0.683037,-1.386465 l 0.0026,-0.0026 0.0026,-0.0017 c 0.4783,-0.478301 0.901978,-0.688134 1.26583,-0.688134 z m -0.292247,6.204262 c -0.488449,0 -0.900261,0.154941 -1.16898,0.474047 -0.26872,0.319102 -0.384844,0.770948 -0.384844,1.330393 0,0.659383 0.150291,1.188993 0.484243,1.555524 0.333952,0.366535 0.834619,0.541167 1.445081,0.541167 0.498836,0 0.89779,-0.08413 1.190219,-0.290546 0.29243,-0.206424 0.446866,-0.544003 0.446866,-0.929408 0,-0.730748 -0.177293,-1.364925 -0.540314,-1.879202 -0.365244,-0.517426 -0.878482,-0.801975 -1.472271,-0.801975 z m 0,0.43497 c 0.46406,0 0.81344,0.188554 1.116309,0.617621 0.305092,0.432212 0.461307,0.967433 0.461307,1.628586 0,0.282704 -0.0817,0.446661 -0.262513,0.574294 -0.180817,0.127638 -0.491941,0.210691 -0.939603,0.210691 -0.530893,0 -0.886376,-0.139469 -1.123104,-0.399289 -0.236723,-0.259825 -0.37125,-0.6691 -0.37125,-1.262433 0,-0.498397 0.10621,-0.840226 0.282899,-1.050042 0.176689,-0.209816 0.433591,-0.319428 0.835955,-0.319428 z"
       id="text4"
       inkscape:label="Decoration" /><path
       style="color:#000000;fill:none;stroke:#000000;stroke-miterlimit:0;stroke-opacity:1;-inkscape-stroke:none"
       d="m 33.716141,28.849171 c -0.68792,2.173094 -22.273046,83.109469 -22.672587,85.705699 -1.3059496,8.48609 -3.2945989,15.74016 -1.8975039,18.99863 13.4987129,31.48326 67.4621279,31.78825 75.9282239,-3.02828 0.534494,-2.19809 -1.171439,-11.0601 -2.223321,-16.82289 C 77.640424,85.156169 68.613905,57.368911 59.601136,29.775713 46.104577,-7.6798123 34.404061,26.676077 33.716141,28.849171 Z"
       id="rect8"
       sodipodi:nodetypes="zsssssz"
       inkscape:label="Box Outline" /></g></svg>
