<?xml version="1.0" encoding="UTF-8" standalone="no"?>
<!-- Created with Inkscape (http://www.inkscape.org/) -->

<svg
   width="120mm"
   height="455mm"
   viewBox="0 0 120 455"
   version="1.1"
   id="svg1"
   inkscape:version="1.3.2 (091e20e, 2023-11-25)"
   sodipodi:docname="starbucks-lid.svg"
   xmlns:inkscape="http://www.inkscape.org/namespaces/inkscape"
   xmlns:sodipodi="http://sodipodi.sourceforge.net/DTD/sodipodi-0.dtd"
   xmlns="http://www.w3.org/2000/svg"
   xmlns:svg="http://www.w3.org/2000/svg">
  <sodipodi:namedview
     id="namedview1"
     pagecolor="#ffffff"
     bordercolor="#000000"
     borderopacity="0.25"
     inkscape:showpageshadow="2"
     inkscape:pageopacity="0.0"
     inkscape:pagecheckerboard="0"
     inkscape:deskcolor="#d1d1d1"
     inkscape:document-units="mm"
     inkscape:zoom="0.84096521"
     inkscape:cx="417.37755"
     inkscape:cy="410.83745"
     inkscape:window-width="1440"
     inkscape:window-height="900"
     inkscape:window-x="0"
     inkscape:window-y="0"
     inkscape:window-maximized="0"
     inkscape:current-layer="g7" />
  <defs
     id="defs1" />
  <g
     inkscape:groupmode="layer"
     id="g7"
     inkscape:label="Layer Six"
     transform="translate(2.0977277e-7,270.00004)">
    <path
       style="color:#000000;fill:#000000;stroke-width:0.55;stroke-miterlimit:0;-inkscape-stroke:none"
       d="m 59.984964,114.99999 c -15.184961,0.008 -27.490435,12.32471 -27.484963,27.50967 0.0055,15.18495 12.320413,27.49307 27.505374,27.49033 15.18496,-0.003 27.494625,-12.31504 27.494625,-27.5 v -0.0194 C 87.489055,127.29567 75.169925,114.99176 59.984964,114.99997 Z m 0,0.15576 c 15.101042,-0.008 27.348386,12.22387 27.359276,27.3249 v 0.0194 c 0,15.10104 -12.237824,27.34152 -27.338865,27.34424 -15.101042,0.003 -27.344169,-12.23353 -27.349608,-27.33457 -0.0055,-15.10104 12.228155,-27.34574 27.329197,-27.35391 z"
       id="path6"
       inkscape:label="Inner Cut" />
    <path
       style="color:#000000;fill:#000000;stroke-width:0.75;stroke-miterlimit:0;-inkscape-stroke:none"
       d="M 59.979497,105 C 39.272732,105.01117 22.49254,121.80642 22.500002,142.51318 22.507502,163.21994 39.300565,180.00373 60.00733,180 80.714094,179.99625 97.5,163.20676 97.5,142.5 v -0.0264 C 97.485075,121.76684 80.686262,104.98877 59.979497,104.99997 Z m 0,0.2124 c 20.59233,-0.0111 37.293253,16.66891 37.308103,37.26123 v 0.0264 c 0,20.59233 -16.687941,37.28389 -37.28027,37.2876 -20.59233,0.004 -37.287503,-16.68209 -37.29492,-37.27442 -0.0075,-20.59233 16.674757,-37.28964 37.267087,-37.30078 z"
       id="path7"
       inkscape:label="Outter Cut" />
    <path
       style="color:#000000;fill:#000000;stroke-miterlimit:0;-inkscape-stroke:none"
       d="m 56.831055,172.20456 c -1.59238,0 -2.88086,1.13343 -2.88086,2.54883 0,1.41539 1.28848,2.55078 2.88086,2.55078 h 6.33789 c 1.59238,0 2.88086,-1.13539 2.88086,-2.55078 0,-1.4154 -1.28848,-2.54883 -2.88086,-2.54883 z m 0,0.0996 h 6.33789 c 1.54499,0 2.78125,1.09461 2.78125,2.44922 0,1.3546 -1.23626,2.45117 -2.78125,2.45117 h -6.33789 c -1.545,0 -2.78125,-1.09657 -2.78125,-2.45117 0,-1.35461 1.23625,-2.44922 2.78125,-2.44922 z"
       id="rect7" />
  </g>
  <g
     inkscape:groupmode="layer"
     id="layer4"
     inkscape:label="Layer Five">
    <path
       style="color:#000000;fill:#000000;stroke-width:0.75;stroke-miterlimit:0;-inkscape-stroke:none"
       d="m 59.979497,295.00004 c -20.706765,0.0112 -37.486957,16.80642 -37.479495,37.51318 0.0075,20.70676 16.800563,37.49055 37.507328,37.48682 20.706764,-0.004 37.49267,-16.79324 37.49267,-37.5 v -0.0264 C 97.485075,311.76688 80.686262,294.98881 59.979497,295.00001 Z m 0,0.2124 c 20.59233,-0.0111 37.293253,16.66891 37.308103,37.26123 v 0.0264 c 0,20.59233 -16.687941,37.28389 -37.28027,37.2876 -20.59233,0.004 -37.287503,-16.68209 -37.29492,-37.27442 -0.0075,-20.59233 16.674757,-37.28964 37.267087,-37.30078 z"
       id="path5"
       inkscape:label="Outter Cut" />
  </g>
  <g
     inkscape:groupmode="layer"
     id="layer3"
     inkscape:label="Layer Four"
     transform="translate(6.3448354e-8,110.00004)">
    <path
       style="color:#000000;fill:#000000;stroke-width:0.55;stroke-miterlimit:0;-inkscape-stroke:none"
       d="m 59.984964,114.99999 c -15.184961,0.008 -27.490435,12.32471 -27.484963,27.50967 0.0055,15.18495 12.320413,27.49307 27.505374,27.49033 15.18496,-0.003 27.494625,-12.31504 27.494625,-27.5 v -0.0194 C 87.489055,127.29567 75.169925,114.99176 59.984964,114.99997 Z m 0,0.15576 c 15.101042,-0.008 27.348386,12.22387 27.359276,27.3249 v 0.0194 c 0,15.10104 -12.237824,27.34152 -27.338865,27.34424 -15.101042,0.003 -27.344169,-12.23353 -27.349608,-27.33457 -0.0055,-15.10104 12.228155,-27.34574 27.329197,-27.35391 z"
       id="path1"
       inkscape:label="Inner Cut" />
    <path
       style="color:#000000;fill:#000000;stroke-width:0.75;stroke-miterlimit:0;-inkscape-stroke:none"
       d="M 59.979497,105 C 39.272732,105.01117 22.49254,121.80642 22.500002,142.51318 22.507502,163.21994 39.300565,180.00373 60.00733,180 80.714094,179.99625 97.5,163.20676 97.5,142.5 v -0.0264 C 97.485075,121.76684 80.686262,104.98877 59.979497,104.99997 Z m 0,0.2124 c 20.59233,-0.0111 37.293253,16.66891 37.308103,37.26123 v 0.0264 c 0,20.59233 -16.687941,37.28389 -37.28027,37.2876 -20.59233,0.004 -37.287503,-16.68209 -37.29492,-37.27442 -0.0075,-20.59233 16.674757,-37.28964 37.267087,-37.30078 z"
       id="path4"
       inkscape:label="Outter Cut" />
  </g>
  <g
     inkscape:groupmode="layer"
     id="layer2"
     inkscape:label="Layer Three">
    <path
       style="color:#000000;fill:#000000;stroke-miterlimit:0;-inkscape-stroke:none"
       d="m 59.972663,110.40005 c -27.60902,0.0149 -49.9826097,22.40856 -49.97266,50.01758 0.01,27.60901 22.40075,49.9874 50.00977,49.98242 27.60902,-0.005 49.990227,-22.39098 49.990227,-50 v -0.0352 C 109.9801,132.75584 87.581683,110.38508 59.972663,110.40001 Z m 0,0.2832 c 27.45644,-0.0148 49.724337,22.22521 49.744137,49.68164 v 0.0352 c 0,27.45644 -22.250587,49.71185 -49.707027,49.7168 -27.45644,0.005 -49.71667,-22.24278 -49.72656,-49.69922 -0.01,-27.45644 22.23301,-49.71953 49.68945,-49.73438 z"
       id="path3"
       inkscape:label="Outter Cut" />
  </g>
  <g
     inkscape:label="Layer One &amp; Two"
     inkscape:groupmode="layer"
     id="layer1">
    <path
       style="color:#000000;fill:#000000;stroke-miterlimit:0;-inkscape-stroke:none"
       d="M 59.976562,10.000007 C 35.128448,10.013444 14.991042,30.167516 15,55.015632 15.008958,79.863748 35.159695,100.00449 60.007812,100.00001 84.85593,99.995527 105,79.848125 105,55.000007 v -0.0332 C 104.98208,30.118692 84.824677,9.9865705 59.976562,10.000007 Z m 0,0.253906 c 24.710793,-0.01336 44.751718,20.002101 44.769528,44.712891 v 0.0332 c 0,24.710796 -20.027482,44.74164 -44.738278,44.74609 C 35.297017,99.750557 15.262815,79.726426 15.253906,55.015632 15.244998,30.304838 35.26577,10.267276 59.976562,10.253913 Z"
       id="path1-7"
       inkscape:label="Inner Cut" />
    <path
       style="color:#000000;fill:#000000;stroke-miterlimit:0;-inkscape-stroke:none"
       d="M 59.972656,5.0000075 C 32.363641,5.0149375 9.9900468,27.408567 10,55.017585 10.01,82.626603 32.400746,105.00499 60.009766,105.00001 87.618785,104.99503 110,82.609027 110,55.000007 v -0.03516 C 109.98009,27.355838 87.581672,4.9850778 59.972656,5.0000075 Z m 0,0.283203 C 87.429092,5.2683635 109.697,27.508418 109.7168,54.964851 v 0.03516 c 0,27.45644 -22.250595,49.711849 -49.707034,49.716799 C 32.553326,104.72176 10.293101,82.474023 10.283203,55.017585 10.273305,27.561147 32.51622,5.2980575 59.972656,5.2832105 Z"
       id="path2"
       inkscape:label="Outter Cut" />
  </g>
</svg>
