<?xml version="1.0" encoding="UTF-8" standalone="no"?>
<!-- Created with Inkscape (http://www.inkscape.org/) -->

<svg
   width="200mm"
   height="525mm"
   viewBox="0 0 200 525"
   version="1.1"
   id="svg1"
   inkscape:version="1.3.2 (091e20e, 2023-11-25)"
   sodipodi:docname="starbucks-lid.svg"
   xmlns:inkscape="http://www.inkscape.org/namespaces/inkscape"
   xmlns:sodipodi="http://sodipodi.sourceforge.net/DTD/sodipodi-0.dtd"
   xmlns="http://www.w3.org/2000/svg"
   xmlns:svg="http://www.w3.org/2000/svg">
  <sodipodi:namedview
     id="namedview1"
     pagecolor="#ffffff"
     bordercolor="#000000"
     borderopacity="0.25"
     inkscape:showpageshadow="2"
     inkscape:pageopacity="0.0"
     inkscape:pagecheckerboard="0"
     inkscape:deskcolor="#d1d1d1"
     inkscape:document-units="mm"
     inkscape:zoom="0.74339879"
     inkscape:cx="211.19216"
     inkscape:cy="1646.4918"
     inkscape:window-width="1440"
     inkscape:window-height="777"
     inkscape:window-x="0"
     inkscape:window-y="25"
     inkscape:window-maximized="0"
     inkscape:current-layer="g7"
     showguides="true" />
  <defs
     id="defs1" />
  <g
     inkscape:groupmode="layer"
     id="g7"
     inkscape:label="Layer Six"
     transform="translate(2.0977277e-7,270.00004)">
    <path
       id="rect1-6"
       style="fill:none;stroke:#000000;stroke-width:0.111668;stroke-miterlimit:0"
       d="m 56.5,513.78483 h 7 c 1.354068,0 2.444166,1.0901 2.444166,2.44416 0,1.35407 -1.090098,2.44417 -2.444166,2.44417 h -7 c -1.354068,0 -2.444166,-1.0901 -2.444166,-2.44417 0,-1.35406 1.090098,-2.44416 2.444166,-2.44416 z"
       inkscape:label="Hole for Coffee"
       transform="translate(-2.0977277e-7,-270.00004)" />
    <path
       id="path1-3-3-1-4-1-0-1-0"
       style="display:inline;fill:none;stroke:#000000;stroke-width:0.0875931;stroke-miterlimit:0"
       d="m 84.956204,217.49996 a 24.956201,24.956198 0 0 1 -24.95171,24.9562 24.956201,24.956198 0 0 1 -24.960697,-24.94721 24.956201,24.956198 0 0 1 24.942707,-24.96519 24.956201,24.956198 0 0 1 24.96969,24.9382 z"
       inkscape:label="Inner Cut" />
    <path
       id="path1-3-3-1-4-1-0-1"
       style="display:inline;fill:none;stroke:#000000;stroke-width:0.113871;stroke-miterlimit:0"
       d="M 92.443064,217.49996 A 32.443062,32.44306 0 0 1 60.005844,249.94303 32.443062,32.44306 0 0 1 27.556937,217.51165 32.443062,32.44306 0 0 1 59.982452,185.0569 32.443062,32.44306 0 0 1 92.443054,217.47657 Z"
       inkscape:label="Outter Cut" />
  </g>
  <g
     inkscape:groupmode="layer"
     id="layer5"
     inkscape:label="Layer Five">
    <path
       id="path1-3-3-1-4-1-0"
       style="display:inline;fill:none;stroke:#000000;stroke-width:0.113871;stroke-miterlimit:0"
       d="M 92.443064,417.5 A 32.44306,32.44306 0 0 1 60.005843,449.94307 32.44306,32.44306 0 0 1 27.556938,417.51169 32.44306,32.44306 0 0 1 59.982451,385.05694 32.44306,32.44306 0 0 1 92.443054,417.47661 Z"
       inkscape:label="Outter Cut" />
  </g>
  <g
     inkscape:groupmode="layer"
     id="layer3"
     inkscape:label="Layer Four">
    <path
       id="path1-3-3-1-4-1"
       style="display:inline;fill:none;stroke:#000000;stroke-width:0.12263;stroke-miterlimit:0"
       d="m 94.938685,345 a 34.938679,34.938679 0 0 1 -34.932394,34.93869 34.938679,34.938679 0 0 1 -34.944974,-34.9261 34.938679,34.938679 0 0 1 34.919782,-34.95127 34.938679,34.938679 0 0 1 34.957577,34.91349 z"
       inkscape:label="Outter Cut" />
  </g>
  <g
     inkscape:groupmode="layer"
     id="layer4"
     inkscape:label="Layer Three">
    <path
       id="path1-3-3-1-9"
       style="display:inline;fill:none;stroke:#000000;stroke-width:0.13139;stroke-miterlimit:0"
       d="m 189.80137,261.68395 a 37.434298,37.434298 0 0 1 -37.42758,37.4343 37.434298,37.434298 0 0 1 -37.44103,-37.42081 37.434298,37.434298 0 0 1 37.41404,-37.44779 37.434298,37.434298 0 0 1 37.45456,37.40731 z"
       inkscape:label="Small Ring; Outter Cut" />
    <path
       id="path1-3-3-1-4"
       style="display:inline;fill:none;stroke:#000000;stroke-width:0.140149;stroke-miterlimit:0"
       d="M 100.29816,260 A 39.929919,39.929919 0 0 1 60.375424,299.92993 39.929919,39.929919 0 0 1 20.438311,260.01439 39.929919,39.929919 0 0 1 60.346633,220.07008 39.929919,39.929919 0 0 1 100.29815,259.97121 Z"
       inkscape:label="Large Ring; Inner Cut" />
    <path
       id="path1-3-3-1"
       style="display:inline;fill:none;stroke:#000000;stroke-width:0.157668;stroke-miterlimit:0"
       d="M 105.2894,260 A 44.921159,44.921159 0 0 1 60.376322,304.92117 44.921159,44.921159 0 0 1 15.44707,260.01619 44.921159,44.921159 0 0 1 60.343932,215.07884 44.921159,44.921159 0 0 1 105.28939,259.96761 Z"
       inkscape:label="Large Ring; Outter Cut" />
  </g>
  <g
     inkscape:groupmode="layer"
     id="layer2"
     inkscape:label="Layer Two">
    <path
       id="path1-3-3"
       style="display:inline;fill:none;stroke:#000000;stroke-width:0.166427;stroke-miterlimit:0"
       d="m 107.41679,162.5 a 47.416781,47.416781 0 0 1 -47.40825,47.41679 47.416781,47.416781 0 0 1 -47.425323,-47.3997 47.416781,47.416781 0 0 1 47.391133,-47.43387 47.416781,47.416781 0 0 1 47.44243,47.38259 z"
       inkscape:label="Outter Cut" />
  </g>
  <g
     inkscape:label="Layer One"
     inkscape:groupmode="layer"
     id="layer1">
    <path
       id="path1-3"
       style="fill:none;stroke:#000000;stroke-width:0.157668;stroke-miterlimit:0"
       d="M 104.92117,60 A 44.921163,44.921163 0 0 1 60.008097,104.92117 44.921163,44.921163 0 0 1 15.07884,60.016195 44.921163,44.921163 0 0 1 59.975706,15.078844 44.921163,44.921163 0 0 1 104.92116,59.967612 Z"
       inkscape:label="Inner Cut" />
    <path
       id="path1"
       style="fill:none;stroke:#000000;stroke-width:0.175187;stroke-miterlimit:0"
       d="M 109.91241,60 A 49.912407,49.912407 0 0 1 60.008997,109.91241 49.912407,49.912407 0 0 1 10.087597,60.017994 49.912407,49.912407 0 0 1 59.973007,10.087601 49.912407,49.912407 0 0 1 109.9124,59.964013 Z"
       inkscape:label="Outter Cut" />
  </g>
</svg>
