<?xml version="1.0" encoding="UTF-8" standalone="no"?>
<!-- Created with Inkscape (http://www.inkscape.org/) -->

<svg
   width="275mm"
   height="95mm"
   viewBox="0 0 275 95"
   version="1.1"
   id="svg1"
   inkscape:version="1.3.2 (091e20e, 2023-11-25)"
   sodipodi:docname="starbucks-sleeve.svg"
   xmlns:inkscape="http://www.inkscape.org/namespaces/inkscape"
   xmlns:sodipodi="http://sodipodi.sourceforge.net/DTD/sodipodi-0.dtd"
   xmlns="http://www.w3.org/2000/svg"
   xmlns:svg="http://www.w3.org/2000/svg">
  <sodipodi:namedview
     id="namedview1"
     pagecolor="#ffffff"
     bordercolor="#000000"
     borderopacity="0.25"
     inkscape:showpageshadow="2"
     inkscape:pageopacity="0.0"
     inkscape:pagecheckerboard="0"
     inkscape:deskcolor="#d1d1d1"
     inkscape:document-units="mm"
     inkscape:zoom="0.665716"
     inkscape:cx="597.10147"
     inkscape:cy="280.90056"
     inkscape:window-width="1440"
     inkscape:window-height="777"
     inkscape:window-x="-1"
     inkscape:window-y="25"
     inkscape:window-maximized="0"
     inkscape:current-layer="layer1"
     showguides="true"
     showgrid="false" />
  <defs
     id="defs1">
    <inkscape:path-effect
       effect="bounding_box"
       linkedpath=""
       id="path-effect3"
       is_visible="true"
       lpeversion="1.3"
       visualbounds="false" />
    <inkscape:path-effect
       effect="envelope"
       id="path-effect2"
       is_visible="true"
       lpeversion="1"
       yy="true"
       xx="true"
       bendpath1="M 12.763341,30.461781 H 269.2763"
       bendpath2="M 269.2763,30.461781 V 140.78483"
       bendpath3="M 52.923347,157.54727 230.86238,156.84883"
       bendpath4="M 12.763341,30.461781 V 140.78483"
       bendpath3-nodetypes="cc" />
    <inkscape:path-effect
       effect="perspective-envelope"
       up_left_point="12.763341,30.461781"
       up_right_point="269.2763,30.461781"
       down_left_point="12.763341,140.78483"
       down_right_point="269.2763,140.78483"
       id="path-effect1"
       is_visible="true"
       lpeversion="1"
       deform_type="perspective"
       horizontal_mirror="false"
       vertical_mirror="false"
       overflow_perspective="false" />
  </defs>
  <g
     inkscape:label="Layer 1"
     inkscape:groupmode="layer"
     id="layer1"
     transform="translate(-3.3351719,-5.2544305)">
    <path
       id="rect1"
       style="display:inline;fill:none;stroke:#000000;stroke-width:0.2;stroke-miterlimit:0;stroke-dasharray:none"
       inkscape:label="cup outline"
       d="M 141.34899,10.360608 C 77.451562,9.9483662 10.348722,30.360937 10.348722,30.360937 l -1.9182288,0.630453 3.8835998,12.245847 1.619041,-1.444447 2.060292,6.67245 -2.202022,-0.389284 2.039139,6.678907 1.610005,-1.426424 2.072028,6.665296 -2.177325,-0.31042 1.997958,6.544024 1.516265,-1.410119 2.042073,6.713092 -2.038574,-0.325206 1.984896,6.50124 1.541765,-1.393535 2.057498,6.704812 -2.104078,-0.414014 2.010746,6.585909 1.57528,-1.420013 1.936295,6.381524 -2.259451,-0.3464 0.807348,2.495865 2.222087,-0.650085 c 0,0 65.33025,-16.610273 110.723631,-16.610273 48.24813,0 111.28726,16.032959 111.28726,16.032959 l 0.41599,0.1292 0.79633,-2.5337 1.63143,1.49758 1.97894,-6.258518 -2.071,0.343 1.95563,-6.402327 1.58837,1.481047 2.164,-6.88872 -2.136,0.338 1.93225,-6.32808 1.47795,1.412316 2.2638,-6.889236 -2.102,0.333 1.93678,-6.342201 c 0.52937,0.4867 1.0808,0.949818 1.60042,1.44694 l 2.1648,-6.871739 c -0.71018,0.121481 -1.42845,0.198536 -2.143,0.292 l 1.97601,-6.46856 1.57871,1.570447 2.17928,-6.950887 -2.176,0.419 3.52928,-11.750831 -0.82889,-0.289905 c 0,0 -64.21714,-20.4125708 -131.00028,-20.000329 z"
       sodipodi:nodetypes="cccccccccccccccccccccccccscccccccccccccccccccccccccc" />
    <path
       id="path1-7-2"
       style="display:inline;stroke:#000000;stroke-width:0.189555"
       d="m 239.32132,71.045847 6.93627,-27.184441 m -3.41534,27.922192 7.33505,-26.834979 m -3.77529,27.766876 7.50085,-26.679663 m -3.94111,27.689218 7.82197,-26.563176 m -4.26221,27.495073 7.98777,-26.369031 m -4.69982,27.300927 8.38655,-26.136057 m -131.03524,9.958835 -0.64674,-29.125895 m 4.59478,28.892921 -0.36444,-29.048237 m 4.23483,28.89292 -0.0433,-29.087065 m 4.18551,29.009407 0.0448,-29.087065 m 4.01972,29.164723 0.3271,-28.89292 m 3.50446,29.087066 0.84237,-29.009408 m 3.18332,29.203553 1.12466,-28.93175 m 3.05636,29.164724 1.21281,-28.93175 m 2.65758,29.164724 1.57275,-28.892921 m 2.33647,29.203553 1.89387,-28.854091 m 2.09301,29.087065 2.29264,-28.659946 m 1.73306,29.048237 2.49728,-28.698776 m 1.64491,29.164724 2.74073,-28.698776 m 1.052,29.125895 3.13951,-28.659946 m 0.73088,29.087066 3.38297,-28.54346 m 0.37093,28.970579 3.74292,-28.349314 m 0.20512,28.931749 4.06405,-28.349314 m -0.0383,28.892921 4.22985,-28.271657 m -0.32064,28.815263 4.51213,-28.11634 m -0.7194,28.776434 4.94974,-28.038683 m -1.07935,28.698776 5.07671,-27.961024 m -1.24515,28.621118 5.359,-27.805708 m -1.6051,28.543459 5.6413,-27.72805 m -1.84857,28.426973 5.92359,-27.572734 m -2.1697,28.388143 6.12822,-27.533905 m -2.45197,28.271657 6.37168,-27.33976 m -2.69544,28.232827 6.73163,-27.184443 M 27.110113,75.355932 18.520433,48.852329 M 30.631039,74.424035 22.478965,47.550218 M 34.224105,73.516362 26.282182,46.501834 M 37.836012,72.637761 29.96891,45.453451 M 41.420464,71.84153 33.966271,44.443896 M 45.059828,71.017842 37.924803,43.511999 M 48.863931,70.194154 41.72802,42.618932 M 52.640576,69.425378 45.76421,41.687035 M 56.307397,68.656602 49.761571,40.949283 M 60.084043,67.997652 53.914249,40.095045 M 63.805776,67.256333 57.91161,39.240806 M 67.527509,66.624839 61.831313,38.503055 M 71.276698,65.965888 65.828674,37.804132 M 75.218082,65.36185 69.864865,37.10521 m 9.047494,27.707515 -4.739501,-28.406438 m 8.625972,27.829856 -4.589782,-28.45112 m 8.476253,27.929451 -4.362404,-28.511887 m 8.303787,28.045131 -4.112281,-28.666395 m 8.053664,28.117269 -3.706842,-28.622046 m 7.648225,28.210202 -3.456719,-28.71498 m 7.343189,28.27568 -3.268168,-28.741628 m 7.237008,28.384696 -3.12316,-28.850644 m 6.92727,28.466257 -2.58044,-28.932206 m 6.43944,28.575274 -2.09263,-28.924735 m 6.16154,28.582295 -1.9312,-28.892927 m 6.0734,28.621123 -1.72658,-29.009413 m 5.71345,28.73761 -1.25014,-29.009414 m 5.15936,28.737611 -0.92902,-29.087072 m 119.31904,-3.130646 -7.09122,27.148604 m 10.98271,-25.983733 -7.1877,26.915629 m 11.31216,-25.983732 -7.51713,26.993287 m 11.40863,-26.061391 -7.76893,27.070946 m 11.81574,-25.906075 -8.02073,26.954458 m 11.91222,-26.100219 -8.42783,27.148603 M 130.8742,13.332013 l 0.87203,29.212612 m 3.64073,-29.367928 0.42609,29.134954 m 3.85369,-28.934737 0.32962,28.81825 m 4.02782,-28.740592 -0.0387,28.546447 m 4.62907,-28.701763 -0.29045,28.701763 m 4.80324,-28.468789 -0.7653,28.711713 m 5.35571,-28.478738 -1.13357,28.595225 m 5.49101,-28.439909 -1.34654,28.711712 m 5.78163,-28.478738 -1.67598,28.672883 m 6.11108,-28.129277 -1.88894,28.478738 m 6.32405,-28.245764 -2.25723,28.556396 m 6.76998,-28.245763 -2.58668,28.634053 m 7.04168,-28.007329 -2.8972,28.434449 m 7.33229,-27.735527 -3.1002,28.114837 m 7.45764,-27.804205 -3.42965,28.308982 m 7.55412,-27.454743 -3.56495,27.99835 m 8.00005,-27.22177 -3.97207,27.726547 m 8.40717,-27.105282 -4.34035,27.648889 m 8.62013,-26.949967 -4.37906,27.641848 m 8.81415,-27.253557 -4.82499,27.874821 m 9.11922,-27.349175 -5.13006,28.009268 m 9.25453,-26.689082 -5.26537,27.426834 m 9.54515,-26.805569 -5.55598,27.543321 m 9.83576,-26.766741 -5.92426,27.543321 m 10.12638,-26.611424 -6.21488,27.504492 m 10.33935,-26.727911 -6.42785,27.582149 m 10.397,-26.572595 -6.56315,27.388005 M 15.70838,32.965069 24.388333,59.375915 m -4.943777,-27.731033 8.328901,26.605326 m -4.43741,-27.925513 8.124552,26.964544 m -4.310718,-27.818782 8.08023,26.857812 m -3.645132,-27.712051 7.442099,26.778538 m -3.472949,-27.710435 7.32483,26.831834 m -3.122706,-27.919046 7.029498,27.095358 m -2.749716,-27.638965 6.57414,26.815277 m -2.372016,-27.980148 6.223896,27.211373 m -2.09943,-28.298585 6.088592,27.474897 m -2.119443,-28.56211 5.971323,27.875703 M 60.45624,22.015283 66.154976,49.903502 M 64.658364,21.238703 70.199051,49.217096 M 69.015804,20.384464 74.215668,48.558145 M 73.295586,19.607884 78.095005,48.00902 m -0.597294,-29.177717 4.613911,28.546223 m -0.334127,-29.245145 4.433116,28.750932 m 0.002,-29.372197 4.042092,28.795615 m 0.548323,-29.416879 3.642928,28.895903 m 0.79217,-29.517168 3.274646,29.05122 m 0.772159,-29.594826 3.294661,29.206536 m 1.21809,-29.517168 2.73224,29.05122 m 1.85818,-29.672485 2.32514,29.323023 m 2.10996,-29.711313 2.07334,29.361852 m 2.36176,-29.8278 1.82155,29.43951 m 3.00184,-29.750143 1.25912,29.445583 m 3.25363,-29.600899 0.89085,29.406754 m 113.31568,14.20241 -7.76641,30.448385 m 0.97638,3.248424 4.41442,-16.836714 m 8.4056,-32.880748 4.61558,-16.560382 m -6.8341,33.55176 -8.14431,30.254241 m 0.9351,3.174464 4.51644,-16.801584 m 8.8518,-32.531286 4.60324,-16.63804 m -7.02847,33.55176 -8.48338,30.021266 m 0.97149,3.178165 4.61845,-16.649968 m 9.06503,-32.37597 4.94037,-16.560383 m -7.53346,33.396445 -8.55066,29.86595 m 1.06516,3.135635 4.54669,-16.452122 m 9.43357,-32.259483 4.96687,-16.588293 m -7.72782,33.269038 -8.85091,29.788293 m 1.0054,3.096807 4.70603,-16.374465 m 9.64679,-32.065338 5.14869,-16.627122 m -8.07751,33.19138 -9.11232,29.632976 m 0.92898,3.011747 4.72669,-16.211747 m 10.093,-31.832364 5.44699,-16.704779 m -139.36983,15.283362 0.61197,32.206609 m 1.93388,1.684276 -0.24103,-16.959205 M 133.4481,27.651484 133.11583,10.448002 m 2.87912,34.550395 0.38937,32.245438 m 1.86315,1.821092 -0.10942,-17.096021 m -0.43873,-34.550396 -0.3446,-17.048166 m 2.80125,34.511566 -0.10495,32.245438 m 1.76818,1.93018 0.20155,-17.166281 m -0.0702,-34.666882 -0.35693,-16.931679 m 2.52922,34.395079 -0.24994,32.245438 m 1.73522,2.113225 0.4903,-17.271668 m -0.0123,-34.628053 0.13553,-16.776363 m 2.21839,34.317421 -0.62784,32.245438 m 1.68737,2.229712 0.63672,-17.310497 m 0.47277,-34.511566 0.31731,-16.815192 m 1.5292,34.405029 -0.93805,32.15783 m 1.5684,2.229713 0.85522,-17.465814 m 1.03546,-34.433908 0.42147,-16.892849 m 1.25717,34.521515 -1.39361,32.15783 m 1.87481,2.299972 0.92027,-17.458414 m 1.24869,-34.356251 0.87508,-16.85402 m 0.59687,34.482686 -1.61619,32.080172 m 1.87785,2.40166 1.01676,-17.404786 m 1.53956,-34.472738 0.90159,-16.776362 m 0.36367,34.366199 -1.91645,32.119002 m 1.6887,2.405358 1.34436,-17.330827 m 1.86926,-34.511567 1.1999,-16.892849 m 0.014,34.560344 -2.21668,32.041344 m 1.50504,2.468217 1.54991,-17.471344 m 2.19899,-34.35625 1.26521,-16.931679 m -0.25799,34.560344 -2.63345,32.041344 m 1.59977,2.531076 1.67124,-17.534203 m 2.76171,-34.239763 1.48591,-17.048165 m -0.72425,34.638001 -2.9337,31.924857 m 1.57514,2.643863 1.83428,-17.569331 m 3.01376,-34.239764 1.62889,-16.698704 m -0.99627,34.366199 -3.27277,31.886028 m 1.77608,2.738152 1.92707,-17.624792 m 3.34348,-34.200935 1.77188,-16.931678 m -1.336,34.512535 -3.58297,31.856179 m 1.5924,2.882368 2.01615,-17.652521 m 3.75085,-34.200934 2.03135,-16.931679 m -1.80217,34.551364 -3.92653,31.739692 m 1.576,2.987756 2.25315,-17.602592 m 4.0029,-34.200935 1.98018,-16.85402 m -1.91887,34.473706 -4.18794,31.623204 m 1.59783,3.061715 2.25348,-17.637722 m 4.4103,-34.045618 2.39498,-16.854021 m -2.46271,34.357219 -4.44936,31.623204 m 1.53851,3.107583 2.48969,-17.528274 m 4.77882,-34.123276 2.26615,-16.815191 m -2.57941,34.279561 -4.78843,31.506717 m 1.3882,3.248099 2.93377,-17.591132 m 4.99204,-34.00679 2.91393,-16.737533 m -3.2208,34.27252 -5.26292,31.397271 m 1.35242,3.272129 3.1079,-17.653991 m 5.32175,-33.851473 2.70746,-16.815191 m -3.25985,34.272519 -5.56316,31.280784 m 1.26123,3.27583 3.29868,-17.580033 m 5.80678,-33.696158 3.00576,-16.776362 m -3.84251,34.156032 -5.89774,31.224965 m 1.27092,3.359378 3.50055,-17.530104 m 5.98118,-33.696157 3.2264,-16.737533 m -4.11452,34.117203 -6.12033,31.147306 m 1.41451,3.34458 3.4177,-17.592964 m 6.31089,-33.463182 3.40821,-16.521551 m -4.4642,33.823563 -6.4594,30.99199 m 1.16247,3.418536 3.73048,-17.433946 m 6.67944,-33.463183 3.66768,-16.249747 m -4.89155,33.51293 -6.64316,30.914332 m 1.04906,3.407442 3.90464,-17.422851 m 7.00915,-33.307867 3.65535,-16.405064 m -5.08592,33.707076 -6.98223,30.681358 m 1.07065,3.407438 4.09911,-17.306361 m 7.22237,-33.230209 3.75951,-16.560379 m -5.28028,33.862391 -7.39897,30.642529 m 1.09963,3.287248 4.01439,-17.263828 m 7.74623,-33.036064 3.98015,-16.482722 m -5.86294,33.629418 -7.4274,30.526042 m 1.02875,3.392642 4.18482,-17.136249 m 8.15361,-32.880747 4.23962,-16.521551 M 32.776037,94.963216 27.678335,78.252238 M 17.94975,46.148009 12.285774,29.807861 m 12.9111,32.383025 8.718538,29.330676 m 2.51517,2.708518 -4.928468,-16.964651 M 21.700011,45.187102 16.134877,28.779666 m 12.424741,32.146865 8.672872,29.865614 m 2.522888,2.682621 -4.769189,-17.089554 M 25.532641,44.006482 20.077452,27.720314 m 12.146929,32.245248 8.519331,30.011173 m 2.392855,2.686321 -4.592548,-17.26627 M 29.392728,43.018056 24.194106,26.684681 m 11.777407,32.319911 8.166934,30.156733 m 2.449568,2.771383 -4.541078,-17.35961 M 33.28027,41.974718 28.158637,25.564891 m 11.587464,32.506188 7.86474,30.313666 m 2.545107,2.802811 -4.386444,-17.465602 M 37.277638,41.068661 32.475101,24.541083 m 11.100501,32.651395 7.546461,30.493344 M 53.579665,90.42947 49.464616,72.953178 M 41.082812,40.162604 36.471625,23.613257 m 10.98839,32.755533 7.250929,30.61811 m 2.471785,2.719623 -3.995546,-17.439752 M 45.107636,39.256548 40.960259,22.539736 m 10.301801,33.005366 6.998936,30.742875 m 2.387979,2.684497 -3.794136,-17.474478 M 49.132459,38.323034 45.148747,21.626641 m 9.942814,33.149686 6.719486,30.890386 m 2.609238,2.551376 -3.787967,-17.461412 M 53.322021,37.47189 49.580987,20.740478 m 9.477356,33.212161 6.458072,31.015151 m 2.405246,2.63273 -3.594232,-17.557706 M 57.264476,36.758027 53.48153,19.844646 m 9.406314,33.421586 6.139793,31.119123 m 2.33254,2.495919 -3.282723,-17.497411 M 61.261844,35.961795 57.734006,19.07679 m 8.983338,33.503035 5.938003,31.184266 m 2.237636,2.495917 -3.120418,-17.480183 M 65.396493,35.19302 61.922494,18.340928 m 8.816545,33.552491 5.582847,31.327065 m 2.286947,2.359099 -2.948962,-17.486164 M 69.503686,34.534069 66.066331,17.560415 m 8.666946,33.674053 5.293976,31.44241 m 2.227172,2.296241 -2.844531,-17.428826 M 73.74816,33.875119 70.587416,16.664583 m 8.002819,34.02076 5.064728,31.409099 m 2.069409,2.272212 -2.454628,-17.398942 M 77.855352,33.243625 74.795241,15.960715 m 7.789232,34.093134 4.775858,31.613474 m 2.262937,2.163123 -2.493676,-17.356947 M 81.935089,32.639587 79.143853,15.393256 m 7.517227,34.16638 4.404618,31.564081 m 2.31225,2.065135 L 91.044354,65.95183 M 86.179563,32.008093 83.537975,14.771991 m 7.1448,34.211063 4.194828,31.769364 m 2.153336,1.872498 -2.09928,-17.30458 M 90.561318,31.431511 88.087414,14.150727 m 6.764232,34.311351 3.770155,31.824391 M 100.75049,82.131237 98.846421,64.99086 M 94.778336,30.964755 92.869826,13.684779 m 6.026256,34.311351 3.392258,31.902049 m 2.09482,1.77451 -1.81418,-17.203498 M 98.940441,30.470542 96.953316,13.141172 m 5.987214,34.466668 3.05317,31.902049 m 1.98511,1.739741 -1.41269,-17.13737 m -3.49103,-34.081019 -1.88292,-17.356017 m 5.67631,34.466668 2.86942,32.018535 m 1.92164,1.665784 -1.23357,-17.098339 m -3.05149,-34.108475 -1.78825,-17.487779 m 5.44318,34.660812 2.3362,32.057365 m 2.09111,1.599226 -1.17093,-17.07808 m -2.50208,-34.190844 -1.5703,-17.669744 m 4.97694,34.932616 2.03597,32.057365 m 2.03143,1.602924 -0.95977,-17.03317 m -2.18735,-34.246922 -1.27007,-17.623445 m 4.5108,34.854958 1.73571,32.135023 m 2.00668,1.606624 -0.68023,-16.959212 m -2.031,-34.398336 -1.07022,-17.394373 m 4.27761,34.705714 1.32894,32.206609 m 1.97576,1.567795 -0.52089,-16.881554 m -1.58204,-34.478754 -0.46403,-17.352784 m 3.38431,34.744543 1.02869,32.12895 m 1.88456,1.645454 -0.36894,-16.959212 m -1.1103,-34.454057 -0.42419,-17.493969"
       sodipodi:nodetypes="cccccccccccccccccccccccccccccccccccccccccccccccccccccccccccccccccccccccccccccccccccccccccccccccccccccccccccccccccccccccccccccccccccccccccccccccccccccccccccccccccccccccccccccccccccccccccccccccccccccccccccccccccccccccccccccccccccccccccccccccccccccccccccccccccccccccccccccccccccccccccccccccccccccccccccccccccccccccccccccccccccccccccccccccccccccccccccccccccccccccccccccccccccccccccccccccccccccccccccccccccccccccccccccccccccccccccccccccccccccccccccccccccccccccccccccccccccccccccccccccccccccccccccccccccccccccccccccccccccccccccccccccccccccccccccccccccccccccccccccccccccccccccccccccccccccccccccccccccccccccccccccc"
       inkscape:label="cut lines"
       sodipodi:insensitive="true" />
    <path
       style="display:none;fill:none;stroke:#000000;stroke-width:0.1;stroke-miterlimit:0"
       d="M 10.222966,29.822602 50.502642,162.02879"
       id="path1"
       sodipodi:nodetypes="cc"
       sodipodi:insensitive="true" />
    <path
       style="display:none;fill:none;stroke:#000000;stroke-width:0.1;stroke-miterlimit:0"
       d="M 273.31702,30.136058 232.53684,161.28109"
       id="path3"
       sodipodi:nodetypes="cc"
       sodipodi:insensitive="true" />
    <path
       style="display:none;fill:none;stroke:#000000;stroke-width:0.1;stroke-miterlimit:0"
       d="M 274.1973,33.971006 233.41712,165.11603"
       id="path3-4"
       sodipodi:nodetypes="cc"
       sodipodi:insensitive="true" />
  </g>
</svg>
