<?xml version="1.0" encoding="UTF-8" standalone="no"?>

<svg
  version="1.1"
  id="Layer_1"
  x="0px"
  y="0px"
  viewBox="0 0 550 385.57114"
  xml:space="preserve"
  sodipodi:docname="UNO_Logo.svg"
  width="550"
  height="385.57114"
  xmlns:inkscape="http://www.inkscape.org/namespaces/inkscape"
  xmlns:sodipodi="http://sodipodi.sourceforge.net/DTD/sodipodi-0.dtd"
  xmlns="http://www.w3.org/2000/svg"
  xmlns:svg="http://www.w3.org/2000/svg"
  xmlns:rdf="http://www.w3.org/1999/02/22-rdf-syntax-ns#"
  xmlns:cc="http://creativecommons.org/ns#"
  xmlns:dc="http://purl.org/dc/elements/1.1/"><metadata
   id="metadata51"><rdf:RDF><cc:Work
       rdf:about=""><dc:format>image/svg+xml</dc:format><dc:type
         rdf:resource="http://purl.org/dc/dcmitype/StillImage" /></cc:Work></rdf:RDF></metadata><defs
   id="defs49" /><sodipodi:namedview
   pagecolor="#ffffff"
   bordercolor="#666666"
   borderopacity="1"
   objecttolerance="10"
   gridtolerance="10"
   guidetolerance="10"
   id="namedview47"
   showgrid="false" />
<g
   inkscape:groupmode="layer"
   id="layer6"
   inkscape:label="Uno Black Lettering"
   style="display:inline"><g
     id="g8"
     inkscape:label="yellow letters"
     style="display:inline"
     transform="matrix(3.0565629,0,0,3.0565629,-659.9919,-1017.7417)"><path
       class="st4"
       d="m 356.2,354 c 9.9,-3.7 18.7,2.2 22.4,12.1 3.7,9.9 0.9,20.1 -9,23.8 -9.9,3.7 -18.8,-2.2 -22.5,-12.1 -3.7,-9.8 -0.8,-20.1 9.1,-23.8 z m -3.1,-8.3 c 14.6,-5.5 29.4,2.6 34.9,17.3 5.5,14.7 -0.4,30.5 -14.9,35.9 -14.6,5.4 -29.4,-2.6 -34.9,-17.3 -5.6,-14.7 0.2,-30.5 14.9,-35.9 z"
       id="path26"
       inkscape:connector-curvature="0"
       style="clip-rule:evenodd;display:inline;fill:#f8da27;fill-rule:evenodd"
       inkscape:label="yellow O" /><path
       id="polygon20"
       style="clip-rule:evenodd;display:inline;fill:#f8da27;fill-rule:evenodd"
       class="st4"
       inkscape:label="yellow N"
       d="M 335.1,412.3 294,385 l 14,37.5 -8.9,3.3 -19.4,-51.8 8.5,-3.2 39.8,26 -13.4,-35.9 8.8,-3.3 19.4,51.9 z" /><path
       class="st4"
       d="m 230.1,392.5 8.9,-3.3 11.1,29.7 c 3.7,9.8 11.5,11.8 18,9.4 6.5,-2.5 11.2,-9.1 7.4,-18.9 l -11.1,-29.7 8.9,-3.3 11,29.4 c 4.4,11.7 4.4,24.5 -12.7,31.2 v 0 c -0.1,0 -0.2,0.1 -0.3,0.1 -0.1,0 -0.2,0.1 -0.3,0.1 v 0 c -16.8,6 -25.7,-3.6 -30.2,-15.6 z"
       id="path34"
       inkscape:connector-curvature="0"
       style="clip-rule:evenodd;display:inline;fill:#f8da27;fill-rule:evenodd"
       inkscape:label="yellow U" /></g><path
     style="display:inline;fill:#000000;fill-rule:evenodd"
     d="M 8.0398067,196.30528 30.819259,174.8658 76.994515,158.14301 c 0,0 31.303645,80.44937 41.023105,108.36642 4.69154,13.47543 18.47701,15.50422 25.03772,17.17392 6.28275,1.59896 9.10192,0.0196 11.62954,-9.65994 0,0 -1.88409,-11.97455 -2.51338,-12.72969 l -40.28419,-103.17752 23.44944,-22.77945 86.42792,-32.15923 61.24703,40.55898 -16.21098,-42.45335 21.45526,-21.570842 45.85475,-18.415798 12.1463,30.51717 c 0,0 33.89839,-71.236753 107.03894,-67.958942 25.4821,1.141986 60.02886,12.865652 81.35118,62.573184 l -5.35987,3.34992 c 0,0 -12.22306,-31.983202 -42.29815,-48.662642 -18.07473,-10.024126 -41.36246,-16.167291 -74.78975,-3.22542 -4.63054,1.792783 -27.97096,14.668405 -35.92888,30.774749 -2.62211,5.306984 -20.29505,37.996401 -11.36342,63.116211 L 354.57777,132.45241 330.82491,69.531193 295.83862,82.849416 333.733,184.01185 221.66744,110.61302 142.03659,140.02663 180.22567,241.1942 c 0,0 6.03606,18.45282 -6.09829,34.75762 -4.086,5.49031 -20.15885,19.61321 -42.98194,11.25718 -13.18317,-4.82663 -16.55299,-15.05155 -21.76125,-24.29123 L 72.615528,166.92781 37.878182,179.24479 11.112699,203.6751 Z"
     id="path11"
     sodipodi:nodetypes="cccssccccccccccsccsssccccccccssccccc"
     inkscape:label="top half" /><path
     style="display:inline;fill:#000000;fill-rule:evenodd"
     d="m 11.078812,203.60737 36.365937,97.78625 c 0,0 8.22507,21.58687 22.186393,34.47424 0,0 13.542682,15.54245 36.180888,19.18538 0,0 19.17312,4.43824 45.08996,-5.08542 0,0 15.46852,-5.2618 25.66872,-13.48441 0,0 9.05461,-6.76814 11.70874,-10.30699 0,0 21.28171,-19.86483 28.72369,-30.74157 l 9.43806,23.40682 46.76017,-17.75294 21.54016,-21.29856 -17.30615,-46.4898 64.00113,42.4974 38.43596,-14.03092 21.70508,-21.94863 -2.66352,-7.06436 c 0,0 17.36795,8.44302 40.10426,6.0097 0,0 15.97791,-1.27219 26.62367,-6.21487 0,0 15.31232,-5.46554 27.47891,-15.42693 0,0 16.78593,-12.67555 25.53066,-26.59108 0,0 10.9392,-14.01614 17.47874,-30.82124 0,0 5.87937,-13.61758 6.10749,-31.33517 0,0 0.67165,-12.20034 -1.91375,-23.07423 0,0 -1.97355,-10.45698 -5.69957,-18.897548 l -5.32076,3.30187 c 0,0 5.13827,9.728268 6.58305,28.054188 0,0 2.151,16.93983 -3.85625,35.87408 0,0 -4.79991,17.1314 -18.2592,31.19901 0,0 -10.55511,11.86229 -25.83938,18.70599 0,0 -15.53563,7.27292 -34.85008,7.88125 0,0 -22.10455,0.55091 -36.93258,-8.19382 0,0 -17.9339,-8.63513 -28.80779,-22.32254 0,0 -18.31123,-19.89879 -22.34016,-49.23444 l -10.49778,0.75546 39.11067,103.96091 -30.0358,10.96066 -116.22443,-77.17924 39.56894,105.96558 -35.44393,13.11188 -62.19587,-166.66407 -11.86453,4.29581 34.95712,92.43729 c 0,0 15.18199,39.38253 4.42083,62.4538 0,0 -5.95699,20.5251 -33.74323,34.96153 0,0 -28.65865,15.90294 -57.84197,10.15941 0,0 -28.626967,0.29599 -50.514455,-48.60159 L 37.747637,179.21083 Z"
     id="path12"
     sodipodi:nodetypes="cccccccccccccccccccccccccccccccccccccccccccccccc"
     inkscape:label="bottom half" /><path
     style="fill:#000000;fill-opacity:1;fill-rule:evenodd"
     d="m 401.05356,105.33879 c 0,0 -4.34832,31.67134 22.77483,57.79404 l 11.54959,0.11309 c 0,0 -30.73356,-14.78015 -28.17687,-57.9104 z"
     id="path15"
     sodipodi:nodetypes="ccccc" /><path
     style="display:inline;fill:#000000;fill-opacity:1;fill-rule:evenodd"
     d="m 407.16486,105.38162 c 0,0 2.63022,-8.435494 10.39328,-11.02318 0,0 6.43571,-2.268764 14.80256,-0.629896 0,0 11.00782,1.666924 20.496,11.413876 0,0 15.07678,14.50135 17.14693,38.73935 0,0 1.4529,8.03221 -2.51489,15.62276 0,0 -2.59676,4.23924 -6.90957,5.79185 0,0 -3.37364,1.77289 -7.34143,1.60038 0,0 -7.84243,0.62939 -17.93441,-3.68342 l -11.58371,-0.25402 c 0,0 6.20553,5.45074 13.59053,7.87488 0,0 4.53034,1.95082 10.87242,2.43867 0,0 3.53619,0.36314 6.35072,0.0254 0,0 7.36736,0.11433 16.48645,-4.01365 0,0 7.05908,-2.76139 12.65062,-8.05271 0,0 7.00136,-5.56492 10.49138,-14.75906 0,0 6.20981,-12.89675 3.04834,-29.69594 0,0 -2.70536,-22.361719 -20.39849,-39.1966 0,0 -11.32181,-11.827825 -28.55281,-12.421997 0,0 -10.9741,-0.840772 -22.98958,5.232989 0,0 -14.29444,6.326791 -20.83034,21.643232 0,0 -2.71839,6.287667 -3.37858,13.285696 z"
     id="path13"
     sodipodi:nodetypes="ccccccccccccccccccccccc"
     inkscape:label="right half of inner O" /></g><g
   inkscape:groupmode="layer"
   id="layer1"
   inkscape:label="Layer 1"
   style="display:inline"><g
     id="g7"
     inkscape:label="background"
     style="display:inline"><path
       style="display:inline;fill:#ff0000;fill-rule:evenodd"
       d="M 79.200491,150.80181 C 113.66138,97.447032 200.89216,15.893691 318.80587,1.3155676 l 9.20898,-0.87704508 31.1584,-0.53415674 c 38.18866,3.17990752 54.8432,8.53321272 75.3874,15.98711622 0,0 -48.25718,3.90719 -86.83211,57.226321 l -6.11949,-16.548397 c 0,0 -2.36011,-3.045019 -7.45489,-3.508181 l -48.1833,18.455055 -3.68751,2.069104 -22.61544,23.328559 c -1.43933,3.879937 -0.41916,5.713557 -0.41916,5.713557 l 7.42893,20.19496 L 226.0259,96.3484 c -3.3793,-1.50191 -6.45081,-0.187738 -6.45081,-0.187738 l -87.25642,32.847388 c -2.85333,1.10452 -4.20345,2.96397 -4.20345,2.96397 l -22.18584,22.56301 c -1.19656,2.39311 -1.1225,5.08717 -1.1225,5.08717 l 38.74536,103.76285 c 1.98206,5.28551 2.57014,12.76216 2.57014,12.76216 -5.09673,0.47192 -9.78153,-1.67176 -9.78153,-1.67176 -1.93487,-0.42473 -6.17547,-3.92688 -6.17547,-3.92688 -3.29794,-3.96847 -4.80693,-5.48047 -8.04893,-12.85622 L 83.590377,154.69716 c -1.202232,-2.31859 -4.389886,-3.89535 -4.389886,-3.89535 z"
       id="path2"
       sodipodi:nodetypes="cccccccccccccccccccccccccc"
       inkscape:label="top of background" /><path
       style="fill:#ff0000;fill-rule:evenodd"
       d="m 417.83412,102.18599 c 0,0 5.33194,-1.96134 12.29279,-0.92879 7.9449,1.17851 18.01183,6.07736 24.69478,19.10912 0,0 13.30296,25.34682 4.80296,36.09779 0,0 -6.40684,5.55119 -19.90644,0.0795 -5.55623,-2.25206 -11.13435,-7.03077 -16.55537,-16.11624 0,0 -10.24683,-14.28188 -8.21686,-32.67726 0.23511,-2.13058 1.43989,-3.72599 2.88814,-5.56412 z"
       id="path5"
       sodipodi:nodetypes="csccscsc"
       inkscape:label="background insdie O" /><path
       style="display:inline;fill:#ff0000;fill-rule:evenodd"
       d="m 106.31892,362.98782 c 0,0 56.12847,10.75278 108.82475,-51.72756 l 4.3738,11.4516 c 0,0 2.72251,4.96747 9.03481,3.59981 L 276.832,308.5244 c 0,0 0.94215,-0.29067 1.34111,-0.9176 l 23.01051,-23.01051 c 0,0 3.05091,-2.22493 1.3411,-7.41136 l -8.89363,-23.29286 43.83291,29.01019 c 0,0 2.45247,1.83213 5.92909,0.63526 l 38.96259,-14.32863 c 0,0 1.50156,-0.31521 2.47045,-1.3411 l 23.15168,-23.0811 c 0,0 22.91431,8.1187 58.3733,-4.16448 0,0 -97.30099,144.30508 -263.70331,144.7686 h -10.58766 c 0,0 -48.78986,-0.40526 -85.74122,-22.40299 z"
       id="path7"
       sodipodi:nodetypes="cccccccccccccccccc"
       inkscape:label="bottom of background" /></g></g>
</svg>