<?xml version="1.0" encoding="UTF-8" standalone="no"?>
<!-- Generator: Adobe Illustrator 22.1.0, SVG Export Plug-In . SVG Version: 6.00 Build 0)  -->

<svg
   xmlns:dc="http://purl.org/dc/elements/1.1/"
   xmlns:cc="http://creativecommons.org/ns#"
   xmlns:rdf="http://www.w3.org/1999/02/22-rdf-syntax-ns#"
   xmlns:svg="http://www.w3.org/2000/svg"
   xmlns="http://www.w3.org/2000/svg"
   xmlns:sodipodi="http://sodipodi.sourceforge.net/DTD/sodipodi-0.dtd"
   xmlns:inkscape="http://www.inkscape.org/namespaces/inkscape"
   version="1.1"
   id="Layer_1"
   x="0px"
   y="0px"
   viewBox="0 0 550 385.57114"
   xml:space="preserve"
   sodipodi:docname="UNO Logo.svg"
   width="550"
   height="385.6"
   inkscape:version="0.92.3 (2405546, 2018-03-11)"><metadata
   id="metadata51"><rdf:RDF><cc:Work
       rdf:about=""><dc:format>image/svg+xml</dc:format><dc:type
         rdf:resource="http://purl.org/dc/dcmitype/StillImage" /><dc:title></dc:title></cc:Work></rdf:RDF></metadata><defs
   id="defs49" /><sodipodi:namedview
   pagecolor="#ffffff"
   bordercolor="#666666"
   borderopacity="1"
   objecttolerance="10"
   gridtolerance="10"
   guidetolerance="10"
   inkscape:pageopacity="0"
   inkscape:pageshadow="2"
   inkscape:window-width="1920"
   inkscape:window-height="1017"
   id="namedview47"
   showgrid="false"
   inkscape:zoom="0.5959596"
   inkscape:cx="26.53264"
   inkscape:cy="414.17013"
   inkscape:window-x="-8"
   inkscape:window-y="-8"
   inkscape:window-maximized="1"
   inkscape:current-layer="Layer_1" />
<style
   type="text/css"
   id="style2">
	.st0{fill-rule:evenodd;clip-rule:evenodd;fill:#ED1C24;}
	.st1{fill:#FFFFFF;}
	.st2{fill-rule:evenodd;clip-rule:evenodd;}
	.st3{fill-rule:evenodd;clip-rule:evenodd;fill:#FFFFFF;}
	.st4{fill-rule:evenodd;clip-rule:evenodd;fill:#F8DA27;}
	.st5{fill-rule:evenodd;clip-rule:evenodd;fill:#58585A;}
</style>
<g
   id="g44"
   transform="matrix(3.1,0,0,3.1,-660,-1017.7)">
	
	
	
	<polygon
   class="st2"
   points="327.6,423.5 306.7,409.6 312.3,424.8 312.3,424.8 312.4,424.8 305.3,431.8 290,437.6 268.2,379.3 275.3,372.2 288.7,367.3 308.4,380.2 303.2,366.3 310.2,359.2 325.4,353.5 347.3,411.8 340.2,418.9"
   id="polygon12"
   style="fill-rule: evenodd; clip-rule: evenodd" />
	<path
   class="st2"
   d="M 351.9 342.8 c 16.7 -6.2 33.2 3.2 39.2 19.3 c 3.5 9.3 2.8 19.3 -1.5 27.2 c -0.2 0.5 -0.5 1 -0.8 1.5 c -6.9 11.4 -14 16.1 -20.9 18.7 c -17.2 6.4 -33.9 -3.2 -40 -19.3 c -3.4 -9.2 -3.1 -18.2 0.8 -26.1 c 2.8 -5.7 8.9 -12.9 16.8 -18.1 v 0 c 1.9 -1.3 4.1 -2.4 6.4 -3.2 z m -2.8 25.2 c 0 -0.1 0.1 -0.2 0.1 -0.3 c 1.1 -3.6 4.7 -4.7 9.2 -3.5 c 4.6 1.2 8.1 5.5 10 10.5 c 0.4 1 0.7 2 0.9 3.1 c 0.9 4.1 0.5 7 -1.2 8.6 c -2 1.9 -5.7 2 -9.9 0.2 c -3.5 -1.9 -6.2 -5.4 -7.8 -9.6 c -1.2 -3 -1.6 -6.1 -1.3 -9 z"
   id="path14"
   inkscape:connector-curvature="0"
   style="fill-rule: evenodd; clip-rule: evenodd" />
	
	<polygon
   class="st3"
   points="296.8,388.9 309.8,423.6 298.2,427.9 277.9,373.4 288.4,369.5 325.2,393.6 312.8,360.4 324.2,356.1 344.7,410.6 334.9,414.2"
   id="polygon18"
   style="fill: #ffffff; fill-rule: evenodd; clip-rule: evenodd" />
	<path
   class="st3"
   d="M 352.6 344.7 c 15.6 -5.8 31 3 36.7 18.2 c 5.6 15.1 -0.2 31.9 -15.8 37.8 c -15.6 5.8 -31 -3.1 -36.7 -18.2 c -5.6 -15.2 0.1 -32 15.8 -37.8 z m 4.1 10.9 c -9.5 3.5 -11.5 13.3 -8.2 22.1 c 3.3 8.8 11.1 14.8 20.7 11.3 c 9.5 -3.6 11.5 -13.3 8.2 -22 c -3.4 -8.8 -11.2 -14.9 -20.7 -11.4 z"
   id="path24"
   inkscape:connector-curvature="0"
   style="fill: #ffffff; fill-rule: evenodd; clip-rule: evenodd" />
	<path
   class="st2"
   d="M 255.9 449.7 c -12 0.7 -20.5 -7 -25.2 -19.7 l -12 -32.2 l 7 -7.1 l 15.3 -5.7 l 12.3 32.9 c 1.6 4.2 4.5 7.9 9.4 8.1 c 1.4 0.1 3.3 -0.1 3.7 -1.9 c 0.1 -2.1 -0.3 -4.2 -1.1 -6.2 l -12.3 -32.9 l 7.1 -7.1 v 0 v 0 v 0 v 0 l 15.2 -5.7 l 12.2 32.6 c 3.5 9.4 3.5 17.8 -0.3 24.6 c -1.8 3.2 -6.1 7 -9.7 10.6 v 0 c -5.5 5.8 -13.8 9.3 -21.6 9.7 z"
   id="path28"
   inkscape:connector-curvature="0"
   style="fill-rule: evenodd; clip-rule: evenodd" />
	<path
   class="st3"
   d="M 273.4 438 v 0 l -1.3 0.5 c -0.1 0 -0.2 0.1 -0.3 0.1 c -0.1 0 -0.2 0.1 -0.3 0.1 l -1.3 0.5 v 0 C 255 444 244.9 436.7 239.6 422.3 l -11.3 -30.3 l 11.5 -4.3 l 11.6 31 c 1.9 5 5.5 9.2 11.2 9.4 c 1.7 0.1 3.4 -0.2 5 -0.8 c 1.6 -0.6 3.2 -1.5 4.4 -2.7 c 4.1 -3.9 4.1 -9.4 2.2 -14.4 l -11.6 -31 l 11.5 -4.3 l 11.5 30.7 c 5.4 14.4 2.5 26.1 -12.2 32.4 z"
   id="path32"
   inkscape:connector-curvature="0"
   style="fill: #ffffff; fill-rule: evenodd; clip-rule: evenodd" />
</g>
</svg>